M48
; DRILL file {KiCad (5.1.10)-1} date 08/21/21 14:03:20
; FORMAT={-:-/ absolute / inch / decimal}
; #@! TF.CreationDate,2021-08-21T14:03:20+05:30
; #@! TF.GenerationSoftware,Kicad,Pcbnew,(5.1.10)-1
; #@! TF.FileFunction,Plated,1,2,PTH
FMAT,2
INCH
T1C0.0157
T2C0.0295
T3C0.0394
T4C0.0433
T5C0.0630
%
G90
G05
T1
X5.1473Y-4.2391
X5.1483Y-4.169
X5.15Y-4.0989
X5.1778Y-3.3987
X5.2004Y-4.2391
X5.2014Y-4.1687
X5.2016Y-4.0991
X5.2184Y-3.3978
X5.3819Y-4.0986
X5.4086Y-3.896
X5.4502Y-3.864
X5.4531Y-4.1012
X5.5442Y-3.3385
X5.8723Y-3.3494
X5.9481Y-4.1012
X5.9485Y-4.1716
X5.9562Y-4.2409
X5.995Y-3.7359
X6.015Y-4.1723
X6.0154Y-4.2405
X6.0161Y-4.1015
X6.2849Y-3.9861
X6.4145Y-4.1618
X6.8214Y-4.6047
T2
X5.7014Y-3.5965
X5.7514Y-3.5965
X5.8014Y-3.5965
T3
X6.6292Y-3.9471
X6.6292Y-4.0471
X6.6292Y-4.1471
X6.6292Y-4.2471
X6.6292Y-4.3471
X6.6292Y-4.4471
X6.6292Y-4.5471
X6.7292Y-3.9471
X6.7292Y-4.0471
X6.7292Y-4.1471
X6.7292Y-4.2471
X6.7292Y-4.3471
X6.7292Y-4.4471
X6.7292Y-4.5471
T4
X4.6168Y-3.6699
X4.6168Y-3.9258
X4.794Y-3.6699
X4.794Y-3.9258
T5
X4.803Y-3.2751
X4.9211Y-3.4601
X5.0392Y-3.2751
T0
M30
