%TF.GenerationSoftware,KiCad,Pcbnew,(5.1.10)-1*%
%TF.CreationDate,2021-08-21T14:03:18+05:30*%
%TF.ProjectId,5V_DC-DC_Converter,35565f44-432d-4444-935f-436f6e766572,v01*%
%TF.SameCoordinates,Original*%
%TF.FileFunction,Soldermask,Top*%
%TF.FilePolarity,Negative*%
%FSLAX46Y46*%
G04 Gerber Fmt 4.6, Leading zero omitted, Abs format (unit mm)*
G04 Created by KiCad (PCBNEW (5.1.10)-1) date 2021-08-21 14:03:18*
%MOMM*%
%LPD*%
G01*
G04 APERTURE LIST*
%ADD10R,0.610000X1.270000*%
%ADD11R,0.755000X0.600000*%
%ADD12R,4.100000X3.810000*%
%ADD13R,0.610000X1.020000*%
%ADD14C,2.000000*%
%ADD15R,5.100000X2.350000*%
%ADD16R,0.600000X0.800000*%
%ADD17R,2.000000X2.000000*%
%ADD18R,0.800000X0.900000*%
%ADD19R,1.050000X1.500000*%
%ADD20O,1.050000X1.500000*%
%ADD21R,0.900000X1.200000*%
%ADD22O,1.700000X1.700000*%
%ADD23R,1.700000X1.700000*%
%ADD24C,2.600000*%
%ADD25R,2.600000X2.600000*%
%ADD26R,2.710000X3.400000*%
G04 APERTURE END LIST*
D10*
%TO.C,PMOS1*%
X137949940Y-86304580D03*
X136679940Y-86304580D03*
X135409940Y-86304580D03*
D11*
X133629400Y-84373720D03*
D12*
X136044940Y-82944580D03*
D10*
X134139940Y-86304580D03*
D13*
X135409940Y-80839580D03*
X137949940Y-80839580D03*
X134139940Y-80839580D03*
X136679940Y-80839580D03*
D11*
X133626860Y-81919520D03*
X138470640Y-81943640D03*
X138468100Y-84368980D03*
%TD*%
D14*
%TO.C,SW1*%
X121766720Y-99715320D03*
X117266720Y-99715320D03*
X121766720Y-93215320D03*
X117266720Y-93215320D03*
%TD*%
D15*
%TO.C,L2*%
X123736100Y-112529980D03*
X123736100Y-116679980D03*
%TD*%
%TO.C,L1*%
X144584420Y-116779040D03*
X144584420Y-112629040D03*
%TD*%
D16*
%TO.C,Z1*%
X135255900Y-88132920D03*
X136955900Y-88132920D03*
%TD*%
D17*
%TO.C,GND*%
X157982920Y-81643220D03*
%TD*%
%TO.C,+ve*%
X154383740Y-81602580D03*
%TD*%
%TO.C,R21*%
G36*
G01*
X131895800Y-100350741D02*
X131895800Y-99450739D01*
G75*
G02*
X132145799Y-99200740I249999J0D01*
G01*
X132670801Y-99200740D01*
G75*
G02*
X132920800Y-99450739I0J-249999D01*
G01*
X132920800Y-100350741D01*
G75*
G02*
X132670801Y-100600740I-249999J0D01*
G01*
X132145799Y-100600740D01*
G75*
G02*
X131895800Y-100350741I0J249999D01*
G01*
G37*
G36*
G01*
X130070800Y-100350741D02*
X130070800Y-99450739D01*
G75*
G02*
X130320799Y-99200740I249999J0D01*
G01*
X130845801Y-99200740D01*
G75*
G02*
X131095800Y-99450739I0J-249999D01*
G01*
X131095800Y-100350741D01*
G75*
G02*
X130845801Y-100600740I-249999J0D01*
G01*
X130320799Y-100600740D01*
G75*
G02*
X130070800Y-100350741I0J249999D01*
G01*
G37*
%TD*%
%TO.C,R20*%
G36*
G01*
X152295180Y-100365981D02*
X152295180Y-99465979D01*
G75*
G02*
X152545179Y-99215980I249999J0D01*
G01*
X153070181Y-99215980D01*
G75*
G02*
X153320180Y-99465979I0J-249999D01*
G01*
X153320180Y-100365981D01*
G75*
G02*
X153070181Y-100615980I-249999J0D01*
G01*
X152545179Y-100615980D01*
G75*
G02*
X152295180Y-100365981I0J249999D01*
G01*
G37*
G36*
G01*
X150470180Y-100365981D02*
X150470180Y-99465979D01*
G75*
G02*
X150720179Y-99215980I249999J0D01*
G01*
X151245181Y-99215980D01*
G75*
G02*
X151495180Y-99465979I0J-249999D01*
G01*
X151495180Y-100365981D01*
G75*
G02*
X151245181Y-100615980I-249999J0D01*
G01*
X150720179Y-100615980D01*
G75*
G02*
X150470180Y-100365981I0J249999D01*
G01*
G37*
%TD*%
D18*
%TO.C,Q1*%
X144800280Y-86308440D03*
X146700280Y-86308440D03*
X145750280Y-84308440D03*
%TD*%
%TO.C,R14*%
G36*
G01*
X169019400Y-87223179D02*
X169019400Y-88123181D01*
G75*
G02*
X168769401Y-88373180I-249999J0D01*
G01*
X168244399Y-88373180D01*
G75*
G02*
X167994400Y-88123181I0J249999D01*
G01*
X167994400Y-87223179D01*
G75*
G02*
X168244399Y-86973180I249999J0D01*
G01*
X168769401Y-86973180D01*
G75*
G02*
X169019400Y-87223179I0J-249999D01*
G01*
G37*
G36*
G01*
X170844400Y-87223179D02*
X170844400Y-88123181D01*
G75*
G02*
X170594401Y-88373180I-249999J0D01*
G01*
X170069399Y-88373180D01*
G75*
G02*
X169819400Y-88123181I0J249999D01*
G01*
X169819400Y-87223179D01*
G75*
G02*
X170069399Y-86973180I249999J0D01*
G01*
X170594401Y-86973180D01*
G75*
G02*
X170844400Y-87223179I0J-249999D01*
G01*
G37*
%TD*%
%TO.C,D4*%
G36*
G01*
X172501400Y-87229630D02*
X172501400Y-88142130D01*
G75*
G02*
X172257650Y-88385880I-243750J0D01*
G01*
X171770150Y-88385880D01*
G75*
G02*
X171526400Y-88142130I0J243750D01*
G01*
X171526400Y-87229630D01*
G75*
G02*
X171770150Y-86985880I243750J0D01*
G01*
X172257650Y-86985880D01*
G75*
G02*
X172501400Y-87229630I0J-243750D01*
G01*
G37*
G36*
G01*
X174376400Y-87229630D02*
X174376400Y-88142130D01*
G75*
G02*
X174132650Y-88385880I-243750J0D01*
G01*
X173645150Y-88385880D01*
G75*
G02*
X173401400Y-88142130I0J243750D01*
G01*
X173401400Y-87229630D01*
G75*
G02*
X173645150Y-86985880I243750J0D01*
G01*
X174132650Y-86985880D01*
G75*
G02*
X174376400Y-87229630I0J-243750D01*
G01*
G37*
%TD*%
%TO.C,R7*%
G36*
G01*
X169004460Y-85132759D02*
X169004460Y-86032761D01*
G75*
G02*
X168754461Y-86282760I-249999J0D01*
G01*
X168229459Y-86282760D01*
G75*
G02*
X167979460Y-86032761I0J249999D01*
G01*
X167979460Y-85132759D01*
G75*
G02*
X168229459Y-84882760I249999J0D01*
G01*
X168754461Y-84882760D01*
G75*
G02*
X169004460Y-85132759I0J-249999D01*
G01*
G37*
G36*
G01*
X170829460Y-85132759D02*
X170829460Y-86032761D01*
G75*
G02*
X170579461Y-86282760I-249999J0D01*
G01*
X170054459Y-86282760D01*
G75*
G02*
X169804460Y-86032761I0J249999D01*
G01*
X169804460Y-85132759D01*
G75*
G02*
X170054459Y-84882760I249999J0D01*
G01*
X170579461Y-84882760D01*
G75*
G02*
X170829460Y-85132759I0J-249999D01*
G01*
G37*
%TD*%
%TO.C,R16*%
G36*
G01*
X168999780Y-83057379D02*
X168999780Y-83957381D01*
G75*
G02*
X168749781Y-84207380I-249999J0D01*
G01*
X168224779Y-84207380D01*
G75*
G02*
X167974780Y-83957381I0J249999D01*
G01*
X167974780Y-83057379D01*
G75*
G02*
X168224779Y-82807380I249999J0D01*
G01*
X168749781Y-82807380D01*
G75*
G02*
X168999780Y-83057379I0J-249999D01*
G01*
G37*
G36*
G01*
X170824780Y-83057379D02*
X170824780Y-83957381D01*
G75*
G02*
X170574781Y-84207380I-249999J0D01*
G01*
X170049779Y-84207380D01*
G75*
G02*
X169799780Y-83957381I0J249999D01*
G01*
X169799780Y-83057379D01*
G75*
G02*
X170049779Y-82807380I249999J0D01*
G01*
X170574781Y-82807380D01*
G75*
G02*
X170824780Y-83057379I0J-249999D01*
G01*
G37*
%TD*%
%TO.C,R15*%
G36*
G01*
X169034940Y-89323759D02*
X169034940Y-90223761D01*
G75*
G02*
X168784941Y-90473760I-249999J0D01*
G01*
X168259939Y-90473760D01*
G75*
G02*
X168009940Y-90223761I0J249999D01*
G01*
X168009940Y-89323759D01*
G75*
G02*
X168259939Y-89073760I249999J0D01*
G01*
X168784941Y-89073760D01*
G75*
G02*
X169034940Y-89323759I0J-249999D01*
G01*
G37*
G36*
G01*
X170859940Y-89323759D02*
X170859940Y-90223761D01*
G75*
G02*
X170609941Y-90473760I-249999J0D01*
G01*
X170084939Y-90473760D01*
G75*
G02*
X169834940Y-90223761I0J249999D01*
G01*
X169834940Y-89323759D01*
G75*
G02*
X170084939Y-89073760I249999J0D01*
G01*
X170609941Y-89073760D01*
G75*
G02*
X170859940Y-89323759I0J-249999D01*
G01*
G37*
%TD*%
%TO.C,D2*%
G36*
G01*
X172543780Y-83051130D02*
X172543780Y-83963630D01*
G75*
G02*
X172300030Y-84207380I-243750J0D01*
G01*
X171812530Y-84207380D01*
G75*
G02*
X171568780Y-83963630I0J243750D01*
G01*
X171568780Y-83051130D01*
G75*
G02*
X171812530Y-82807380I243750J0D01*
G01*
X172300030Y-82807380D01*
G75*
G02*
X172543780Y-83051130I0J-243750D01*
G01*
G37*
G36*
G01*
X174418780Y-83051130D02*
X174418780Y-83963630D01*
G75*
G02*
X174175030Y-84207380I-243750J0D01*
G01*
X173687530Y-84207380D01*
G75*
G02*
X173443780Y-83963630I0J243750D01*
G01*
X173443780Y-83051130D01*
G75*
G02*
X173687530Y-82807380I243750J0D01*
G01*
X174175030Y-82807380D01*
G75*
G02*
X174418780Y-83051130I0J-243750D01*
G01*
G37*
%TD*%
%TO.C,D5*%
G36*
G01*
X172511940Y-89317510D02*
X172511940Y-90230010D01*
G75*
G02*
X172268190Y-90473760I-243750J0D01*
G01*
X171780690Y-90473760D01*
G75*
G02*
X171536940Y-90230010I0J243750D01*
G01*
X171536940Y-89317510D01*
G75*
G02*
X171780690Y-89073760I243750J0D01*
G01*
X172268190Y-89073760D01*
G75*
G02*
X172511940Y-89317510I0J-243750D01*
G01*
G37*
G36*
G01*
X174386940Y-89317510D02*
X174386940Y-90230010D01*
G75*
G02*
X174143190Y-90473760I-243750J0D01*
G01*
X173655690Y-90473760D01*
G75*
G02*
X173411940Y-90230010I0J243750D01*
G01*
X173411940Y-89317510D01*
G75*
G02*
X173655690Y-89073760I243750J0D01*
G01*
X174143190Y-89073760D01*
G75*
G02*
X174386940Y-89317510I0J-243750D01*
G01*
G37*
%TD*%
%TO.C,D3*%
G36*
G01*
X172498460Y-85129010D02*
X172498460Y-86041510D01*
G75*
G02*
X172254710Y-86285260I-243750J0D01*
G01*
X171767210Y-86285260D01*
G75*
G02*
X171523460Y-86041510I0J243750D01*
G01*
X171523460Y-85129010D01*
G75*
G02*
X171767210Y-84885260I243750J0D01*
G01*
X172254710Y-84885260D01*
G75*
G02*
X172498460Y-85129010I0J-243750D01*
G01*
G37*
G36*
G01*
X174373460Y-85129010D02*
X174373460Y-86041510D01*
G75*
G02*
X174129710Y-86285260I-243750J0D01*
G01*
X173642210Y-86285260D01*
G75*
G02*
X173398460Y-86041510I0J243750D01*
G01*
X173398460Y-85129010D01*
G75*
G02*
X173642210Y-84885260I243750J0D01*
G01*
X174129710Y-84885260D01*
G75*
G02*
X174373460Y-85129010I0J-243750D01*
G01*
G37*
%TD*%
%TO.C,R9*%
G36*
G01*
X135605139Y-96251960D02*
X136505141Y-96251960D01*
G75*
G02*
X136755140Y-96501959I0J-249999D01*
G01*
X136755140Y-97026961D01*
G75*
G02*
X136505141Y-97276960I-249999J0D01*
G01*
X135605139Y-97276960D01*
G75*
G02*
X135355140Y-97026961I0J249999D01*
G01*
X135355140Y-96501959D01*
G75*
G02*
X135605139Y-96251960I249999J0D01*
G01*
G37*
G36*
G01*
X135605139Y-94426960D02*
X136505141Y-94426960D01*
G75*
G02*
X136755140Y-94676959I0J-249999D01*
G01*
X136755140Y-95201961D01*
G75*
G02*
X136505141Y-95451960I-249999J0D01*
G01*
X135605139Y-95451960D01*
G75*
G02*
X135355140Y-95201961I0J249999D01*
G01*
X135355140Y-94676959D01*
G75*
G02*
X135605139Y-94426960I249999J0D01*
G01*
G37*
%TD*%
%TO.C,R8*%
G36*
G01*
X134346141Y-95451960D02*
X133446139Y-95451960D01*
G75*
G02*
X133196140Y-95201961I0J249999D01*
G01*
X133196140Y-94676959D01*
G75*
G02*
X133446139Y-94426960I249999J0D01*
G01*
X134346141Y-94426960D01*
G75*
G02*
X134596140Y-94676959I0J-249999D01*
G01*
X134596140Y-95201961D01*
G75*
G02*
X134346141Y-95451960I-249999J0D01*
G01*
G37*
G36*
G01*
X134346141Y-97276960D02*
X133446139Y-97276960D01*
G75*
G02*
X133196140Y-97026961I0J249999D01*
G01*
X133196140Y-96501959D01*
G75*
G02*
X133446139Y-96251960I249999J0D01*
G01*
X134346141Y-96251960D01*
G75*
G02*
X134596140Y-96501959I0J-249999D01*
G01*
X134596140Y-97026961D01*
G75*
G02*
X134346141Y-97276960I-249999J0D01*
G01*
G37*
%TD*%
%TO.C,C10*%
G36*
G01*
X161833540Y-89855420D02*
X162783540Y-89855420D01*
G75*
G02*
X163033540Y-90105420I0J-250000D01*
G01*
X163033540Y-90605420D01*
G75*
G02*
X162783540Y-90855420I-250000J0D01*
G01*
X161833540Y-90855420D01*
G75*
G02*
X161583540Y-90605420I0J250000D01*
G01*
X161583540Y-90105420D01*
G75*
G02*
X161833540Y-89855420I250000J0D01*
G01*
G37*
G36*
G01*
X161833540Y-87955420D02*
X162783540Y-87955420D01*
G75*
G02*
X163033540Y-88205420I0J-250000D01*
G01*
X163033540Y-88705420D01*
G75*
G02*
X162783540Y-88955420I-250000J0D01*
G01*
X161833540Y-88955420D01*
G75*
G02*
X161583540Y-88705420I0J250000D01*
G01*
X161583540Y-88205420D01*
G75*
G02*
X161833540Y-87955420I250000J0D01*
G01*
G37*
%TD*%
%TO.C,R17*%
G36*
G01*
X159620799Y-85647480D02*
X160520801Y-85647480D01*
G75*
G02*
X160770800Y-85897479I0J-249999D01*
G01*
X160770800Y-86422481D01*
G75*
G02*
X160520801Y-86672480I-249999J0D01*
G01*
X159620799Y-86672480D01*
G75*
G02*
X159370800Y-86422481I0J249999D01*
G01*
X159370800Y-85897479D01*
G75*
G02*
X159620799Y-85647480I249999J0D01*
G01*
G37*
G36*
G01*
X159620799Y-83822480D02*
X160520801Y-83822480D01*
G75*
G02*
X160770800Y-84072479I0J-249999D01*
G01*
X160770800Y-84597481D01*
G75*
G02*
X160520801Y-84847480I-249999J0D01*
G01*
X159620799Y-84847480D01*
G75*
G02*
X159370800Y-84597481I0J249999D01*
G01*
X159370800Y-84072479D01*
G75*
G02*
X159620799Y-83822480I249999J0D01*
G01*
G37*
%TD*%
%TO.C,R18*%
G36*
G01*
X159613179Y-89779420D02*
X160513181Y-89779420D01*
G75*
G02*
X160763180Y-90029419I0J-249999D01*
G01*
X160763180Y-90554421D01*
G75*
G02*
X160513181Y-90804420I-249999J0D01*
G01*
X159613179Y-90804420D01*
G75*
G02*
X159363180Y-90554421I0J249999D01*
G01*
X159363180Y-90029419D01*
G75*
G02*
X159613179Y-89779420I249999J0D01*
G01*
G37*
G36*
G01*
X159613179Y-87954420D02*
X160513181Y-87954420D01*
G75*
G02*
X160763180Y-88204419I0J-249999D01*
G01*
X160763180Y-88729421D01*
G75*
G02*
X160513181Y-88979420I-249999J0D01*
G01*
X159613179Y-88979420D01*
G75*
G02*
X159363180Y-88729421I0J249999D01*
G01*
X159363180Y-88204419D01*
G75*
G02*
X159613179Y-87954420I249999J0D01*
G01*
G37*
%TD*%
D19*
%TO.C,Q2*%
X144815560Y-91351100D03*
D20*
X147355560Y-91351100D03*
X146085560Y-91351100D03*
%TD*%
%TO.C,R13*%
G36*
G01*
X138890161Y-95466580D02*
X137990159Y-95466580D01*
G75*
G02*
X137740160Y-95216581I0J249999D01*
G01*
X137740160Y-94691579D01*
G75*
G02*
X137990159Y-94441580I249999J0D01*
G01*
X138890161Y-94441580D01*
G75*
G02*
X139140160Y-94691579I0J-249999D01*
G01*
X139140160Y-95216581D01*
G75*
G02*
X138890161Y-95466580I-249999J0D01*
G01*
G37*
G36*
G01*
X138890161Y-97291580D02*
X137990159Y-97291580D01*
G75*
G02*
X137740160Y-97041581I0J249999D01*
G01*
X137740160Y-96516579D01*
G75*
G02*
X137990159Y-96266580I249999J0D01*
G01*
X138890161Y-96266580D01*
G75*
G02*
X139140160Y-96516579I0J-249999D01*
G01*
X139140160Y-97041581D01*
G75*
G02*
X138890161Y-97291580I-249999J0D01*
G01*
G37*
%TD*%
%TO.C,R19*%
G36*
G01*
X141445401Y-95491980D02*
X140545399Y-95491980D01*
G75*
G02*
X140295400Y-95241981I0J249999D01*
G01*
X140295400Y-94716979D01*
G75*
G02*
X140545399Y-94466980I249999J0D01*
G01*
X141445401Y-94466980D01*
G75*
G02*
X141695400Y-94716979I0J-249999D01*
G01*
X141695400Y-95241981D01*
G75*
G02*
X141445401Y-95491980I-249999J0D01*
G01*
G37*
G36*
G01*
X141445401Y-97316980D02*
X140545399Y-97316980D01*
G75*
G02*
X140295400Y-97066981I0J249999D01*
G01*
X140295400Y-96541979D01*
G75*
G02*
X140545399Y-96291980I249999J0D01*
G01*
X141445401Y-96291980D01*
G75*
G02*
X141695400Y-96541979I0J-249999D01*
G01*
X141695400Y-97066981D01*
G75*
G02*
X141445401Y-97316980I-249999J0D01*
G01*
G37*
%TD*%
D21*
%TO.C,D1*%
X147740640Y-94957900D03*
X144440640Y-94957900D03*
%TD*%
%TO.C,R11*%
G36*
G01*
X143200541Y-84921140D02*
X142300539Y-84921140D01*
G75*
G02*
X142050540Y-84671141I0J249999D01*
G01*
X142050540Y-84146139D01*
G75*
G02*
X142300539Y-83896140I249999J0D01*
G01*
X143200541Y-83896140D01*
G75*
G02*
X143450540Y-84146139I0J-249999D01*
G01*
X143450540Y-84671141D01*
G75*
G02*
X143200541Y-84921140I-249999J0D01*
G01*
G37*
G36*
G01*
X143200541Y-86746140D02*
X142300539Y-86746140D01*
G75*
G02*
X142050540Y-86496141I0J249999D01*
G01*
X142050540Y-85971139D01*
G75*
G02*
X142300539Y-85721140I249999J0D01*
G01*
X143200541Y-85721140D01*
G75*
G02*
X143450540Y-85971139I0J-249999D01*
G01*
X143450540Y-86496141D01*
G75*
G02*
X143200541Y-86746140I-249999J0D01*
G01*
G37*
%TD*%
%TO.C,R10*%
G36*
G01*
X145700160Y-96880259D02*
X145700160Y-97780261D01*
G75*
G02*
X145450161Y-98030260I-249999J0D01*
G01*
X144925159Y-98030260D01*
G75*
G02*
X144675160Y-97780261I0J249999D01*
G01*
X144675160Y-96880259D01*
G75*
G02*
X144925159Y-96630260I249999J0D01*
G01*
X145450161Y-96630260D01*
G75*
G02*
X145700160Y-96880259I0J-249999D01*
G01*
G37*
G36*
G01*
X147525160Y-96880259D02*
X147525160Y-97780261D01*
G75*
G02*
X147275161Y-98030260I-249999J0D01*
G01*
X146750159Y-98030260D01*
G75*
G02*
X146500160Y-97780261I0J249999D01*
G01*
X146500160Y-96880259D01*
G75*
G02*
X146750159Y-96630260I249999J0D01*
G01*
X147275161Y-96630260D01*
G75*
G02*
X147525160Y-96880259I0J-249999D01*
G01*
G37*
%TD*%
%TO.C,R4*%
G36*
G01*
X151502959Y-89754660D02*
X152402961Y-89754660D01*
G75*
G02*
X152652960Y-90004659I0J-249999D01*
G01*
X152652960Y-90529661D01*
G75*
G02*
X152402961Y-90779660I-249999J0D01*
G01*
X151502959Y-90779660D01*
G75*
G02*
X151252960Y-90529661I0J249999D01*
G01*
X151252960Y-90004659D01*
G75*
G02*
X151502959Y-89754660I249999J0D01*
G01*
G37*
G36*
G01*
X151502959Y-87929660D02*
X152402961Y-87929660D01*
G75*
G02*
X152652960Y-88179659I0J-249999D01*
G01*
X152652960Y-88704661D01*
G75*
G02*
X152402961Y-88954660I-249999J0D01*
G01*
X151502959Y-88954660D01*
G75*
G02*
X151252960Y-88704661I0J249999D01*
G01*
X151252960Y-88179659D01*
G75*
G02*
X151502959Y-87929660I249999J0D01*
G01*
G37*
%TD*%
%TO.C,R3*%
G36*
G01*
X151505499Y-85647480D02*
X152405501Y-85647480D01*
G75*
G02*
X152655500Y-85897479I0J-249999D01*
G01*
X152655500Y-86422481D01*
G75*
G02*
X152405501Y-86672480I-249999J0D01*
G01*
X151505499Y-86672480D01*
G75*
G02*
X151255500Y-86422481I0J249999D01*
G01*
X151255500Y-85897479D01*
G75*
G02*
X151505499Y-85647480I249999J0D01*
G01*
G37*
G36*
G01*
X151505499Y-83822480D02*
X152405501Y-83822480D01*
G75*
G02*
X152655500Y-84072479I0J-249999D01*
G01*
X152655500Y-84597481D01*
G75*
G02*
X152405501Y-84847480I-249999J0D01*
G01*
X151505499Y-84847480D01*
G75*
G02*
X151255500Y-84597481I0J249999D01*
G01*
X151255500Y-84072479D01*
G75*
G02*
X151505499Y-83822480I249999J0D01*
G01*
G37*
%TD*%
D22*
%TO.C,J2*%
X170921560Y-115496320D03*
X168381560Y-115496320D03*
X170921560Y-112956320D03*
X168381560Y-112956320D03*
X170921560Y-110416320D03*
X168381560Y-110416320D03*
X170921560Y-107876320D03*
X168381560Y-107876320D03*
X170921560Y-105336320D03*
X168381560Y-105336320D03*
X170921560Y-102796320D03*
X168381560Y-102796320D03*
X170921560Y-100256320D03*
D23*
X168381560Y-100256320D03*
%TD*%
%TO.C,C1*%
G36*
G01*
X158711880Y-108049480D02*
X159661880Y-108049480D01*
G75*
G02*
X159911880Y-108299480I0J-250000D01*
G01*
X159911880Y-108799480D01*
G75*
G02*
X159661880Y-109049480I-250000J0D01*
G01*
X158711880Y-109049480D01*
G75*
G02*
X158461880Y-108799480I0J250000D01*
G01*
X158461880Y-108299480D01*
G75*
G02*
X158711880Y-108049480I250000J0D01*
G01*
G37*
G36*
G01*
X158711880Y-106149480D02*
X159661880Y-106149480D01*
G75*
G02*
X159911880Y-106399480I0J-250000D01*
G01*
X159911880Y-106899480D01*
G75*
G02*
X159661880Y-107149480I-250000J0D01*
G01*
X158711880Y-107149480D01*
G75*
G02*
X158461880Y-106899480I0J250000D01*
G01*
X158461880Y-106399480D01*
G75*
G02*
X158711880Y-106149480I250000J0D01*
G01*
G37*
%TD*%
%TO.C,C2*%
G36*
G01*
X156333940Y-108024240D02*
X157283940Y-108024240D01*
G75*
G02*
X157533940Y-108274240I0J-250000D01*
G01*
X157533940Y-108774240D01*
G75*
G02*
X157283940Y-109024240I-250000J0D01*
G01*
X156333940Y-109024240D01*
G75*
G02*
X156083940Y-108774240I0J250000D01*
G01*
X156083940Y-108274240D01*
G75*
G02*
X156333940Y-108024240I250000J0D01*
G01*
G37*
G36*
G01*
X156333940Y-106124240D02*
X157283940Y-106124240D01*
G75*
G02*
X157533940Y-106374240I0J-250000D01*
G01*
X157533940Y-106874240D01*
G75*
G02*
X157283940Y-107124240I-250000J0D01*
G01*
X156333940Y-107124240D01*
G75*
G02*
X156083940Y-106874240I0J250000D01*
G01*
X156083940Y-106374240D01*
G75*
G02*
X156333940Y-106124240I250000J0D01*
G01*
G37*
%TD*%
%TO.C,C3*%
G36*
G01*
X153184940Y-109766240D02*
X153184940Y-110716240D01*
G75*
G02*
X152934940Y-110966240I-250000J0D01*
G01*
X152434940Y-110966240D01*
G75*
G02*
X152184940Y-110716240I0J250000D01*
G01*
X152184940Y-109766240D01*
G75*
G02*
X152434940Y-109516240I250000J0D01*
G01*
X152934940Y-109516240D01*
G75*
G02*
X153184940Y-109766240I0J-250000D01*
G01*
G37*
G36*
G01*
X155084940Y-109766240D02*
X155084940Y-110716240D01*
G75*
G02*
X154834940Y-110966240I-250000J0D01*
G01*
X154334940Y-110966240D01*
G75*
G02*
X154084940Y-110716240I0J250000D01*
G01*
X154084940Y-109766240D01*
G75*
G02*
X154334940Y-109516240I250000J0D01*
G01*
X154834940Y-109516240D01*
G75*
G02*
X155084940Y-109766240I0J-250000D01*
G01*
G37*
%TD*%
%TO.C,C4*%
G36*
G01*
X145046940Y-102537240D02*
X145046940Y-101587240D01*
G75*
G02*
X145296940Y-101337240I250000J0D01*
G01*
X145796940Y-101337240D01*
G75*
G02*
X146046940Y-101587240I0J-250000D01*
G01*
X146046940Y-102537240D01*
G75*
G02*
X145796940Y-102787240I-250000J0D01*
G01*
X145296940Y-102787240D01*
G75*
G02*
X145046940Y-102537240I0J250000D01*
G01*
G37*
G36*
G01*
X146946940Y-102537240D02*
X146946940Y-101587240D01*
G75*
G02*
X147196940Y-101337240I250000J0D01*
G01*
X147696940Y-101337240D01*
G75*
G02*
X147946940Y-101587240I0J-250000D01*
G01*
X147946940Y-102537240D01*
G75*
G02*
X147696940Y-102787240I-250000J0D01*
G01*
X147196940Y-102787240D01*
G75*
G02*
X146946940Y-102537240I0J250000D01*
G01*
G37*
%TD*%
%TO.C,C5*%
G36*
G01*
X146733480Y-107837920D02*
X146733480Y-106887920D01*
G75*
G02*
X146983480Y-106637920I250000J0D01*
G01*
X147483480Y-106637920D01*
G75*
G02*
X147733480Y-106887920I0J-250000D01*
G01*
X147733480Y-107837920D01*
G75*
G02*
X147483480Y-108087920I-250000J0D01*
G01*
X146983480Y-108087920D01*
G75*
G02*
X146733480Y-107837920I0J250000D01*
G01*
G37*
G36*
G01*
X144833480Y-107837920D02*
X144833480Y-106887920D01*
G75*
G02*
X145083480Y-106637920I250000J0D01*
G01*
X145583480Y-106637920D01*
G75*
G02*
X145833480Y-106887920I0J-250000D01*
G01*
X145833480Y-107837920D01*
G75*
G02*
X145583480Y-108087920I-250000J0D01*
G01*
X145083480Y-108087920D01*
G75*
G02*
X144833480Y-107837920I0J250000D01*
G01*
G37*
%TD*%
%TO.C,C6*%
G36*
G01*
X143002480Y-106834920D02*
X143952480Y-106834920D01*
G75*
G02*
X144202480Y-107084920I0J-250000D01*
G01*
X144202480Y-107584920D01*
G75*
G02*
X143952480Y-107834920I-250000J0D01*
G01*
X143002480Y-107834920D01*
G75*
G02*
X142752480Y-107584920I0J250000D01*
G01*
X142752480Y-107084920D01*
G75*
G02*
X143002480Y-106834920I250000J0D01*
G01*
G37*
G36*
G01*
X143002480Y-104934920D02*
X143952480Y-104934920D01*
G75*
G02*
X144202480Y-105184920I0J-250000D01*
G01*
X144202480Y-105684920D01*
G75*
G02*
X143952480Y-105934920I-250000J0D01*
G01*
X143002480Y-105934920D01*
G75*
G02*
X142752480Y-105684920I0J250000D01*
G01*
X142752480Y-105184920D01*
G75*
G02*
X143002480Y-104934920I250000J0D01*
G01*
G37*
%TD*%
%TO.C,C7*%
G36*
G01*
X135796500Y-107917000D02*
X136746500Y-107917000D01*
G75*
G02*
X136996500Y-108167000I0J-250000D01*
G01*
X136996500Y-108667000D01*
G75*
G02*
X136746500Y-108917000I-250000J0D01*
G01*
X135796500Y-108917000D01*
G75*
G02*
X135546500Y-108667000I0J250000D01*
G01*
X135546500Y-108167000D01*
G75*
G02*
X135796500Y-107917000I250000J0D01*
G01*
G37*
G36*
G01*
X135796500Y-106017000D02*
X136746500Y-106017000D01*
G75*
G02*
X136996500Y-106267000I0J-250000D01*
G01*
X136996500Y-106767000D01*
G75*
G02*
X136746500Y-107017000I-250000J0D01*
G01*
X135796500Y-107017000D01*
G75*
G02*
X135546500Y-106767000I0J250000D01*
G01*
X135546500Y-106267000D01*
G75*
G02*
X135796500Y-106017000I250000J0D01*
G01*
G37*
%TD*%
%TO.C,C8*%
G36*
G01*
X138145500Y-107955000D02*
X139095500Y-107955000D01*
G75*
G02*
X139345500Y-108205000I0J-250000D01*
G01*
X139345500Y-108705000D01*
G75*
G02*
X139095500Y-108955000I-250000J0D01*
G01*
X138145500Y-108955000D01*
G75*
G02*
X137895500Y-108705000I0J250000D01*
G01*
X137895500Y-108205000D01*
G75*
G02*
X138145500Y-107955000I250000J0D01*
G01*
G37*
G36*
G01*
X138145500Y-106055000D02*
X139095500Y-106055000D01*
G75*
G02*
X139345500Y-106305000I0J-250000D01*
G01*
X139345500Y-106805000D01*
G75*
G02*
X139095500Y-107055000I-250000J0D01*
G01*
X138145500Y-107055000D01*
G75*
G02*
X137895500Y-106805000I0J250000D01*
G01*
X137895500Y-106305000D01*
G75*
G02*
X138145500Y-106055000I250000J0D01*
G01*
G37*
%TD*%
%TO.C,C52*%
G36*
G01*
X124465500Y-107726000D02*
X124465500Y-106776000D01*
G75*
G02*
X124715500Y-106526000I250000J0D01*
G01*
X125215500Y-106526000D01*
G75*
G02*
X125465500Y-106776000I0J-250000D01*
G01*
X125465500Y-107726000D01*
G75*
G02*
X125215500Y-107976000I-250000J0D01*
G01*
X124715500Y-107976000D01*
G75*
G02*
X124465500Y-107726000I0J250000D01*
G01*
G37*
G36*
G01*
X122565500Y-107726000D02*
X122565500Y-106776000D01*
G75*
G02*
X122815500Y-106526000I250000J0D01*
G01*
X123315500Y-106526000D01*
G75*
G02*
X123565500Y-106776000I0J-250000D01*
G01*
X123565500Y-107726000D01*
G75*
G02*
X123315500Y-107976000I-250000J0D01*
G01*
X122815500Y-107976000D01*
G75*
G02*
X122565500Y-107726000I0J250000D01*
G01*
G37*
%TD*%
%TO.C,C32*%
G36*
G01*
X132620500Y-109786000D02*
X132620500Y-110736000D01*
G75*
G02*
X132370500Y-110986000I-250000J0D01*
G01*
X131870500Y-110986000D01*
G75*
G02*
X131620500Y-110736000I0J250000D01*
G01*
X131620500Y-109786000D01*
G75*
G02*
X131870500Y-109536000I250000J0D01*
G01*
X132370500Y-109536000D01*
G75*
G02*
X132620500Y-109786000I0J-250000D01*
G01*
G37*
G36*
G01*
X134520500Y-109786000D02*
X134520500Y-110736000D01*
G75*
G02*
X134270500Y-110986000I-250000J0D01*
G01*
X133770500Y-110986000D01*
G75*
G02*
X133520500Y-110736000I0J250000D01*
G01*
X133520500Y-109786000D01*
G75*
G02*
X133770500Y-109536000I250000J0D01*
G01*
X134270500Y-109536000D01*
G75*
G02*
X134520500Y-109786000I0J-250000D01*
G01*
G37*
%TD*%
%TO.C,C62*%
G36*
G01*
X120733500Y-106635000D02*
X121683500Y-106635000D01*
G75*
G02*
X121933500Y-106885000I0J-250000D01*
G01*
X121933500Y-107385000D01*
G75*
G02*
X121683500Y-107635000I-250000J0D01*
G01*
X120733500Y-107635000D01*
G75*
G02*
X120483500Y-107385000I0J250000D01*
G01*
X120483500Y-106885000D01*
G75*
G02*
X120733500Y-106635000I250000J0D01*
G01*
G37*
G36*
G01*
X120733500Y-104735000D02*
X121683500Y-104735000D01*
G75*
G02*
X121933500Y-104985000I0J-250000D01*
G01*
X121933500Y-105485000D01*
G75*
G02*
X121683500Y-105735000I-250000J0D01*
G01*
X120733500Y-105735000D01*
G75*
G02*
X120483500Y-105485000I0J250000D01*
G01*
X120483500Y-104985000D01*
G75*
G02*
X120733500Y-104735000I250000J0D01*
G01*
G37*
%TD*%
%TO.C,C42*%
G36*
G01*
X126522500Y-100475000D02*
X126522500Y-99525000D01*
G75*
G02*
X126772500Y-99275000I250000J0D01*
G01*
X127272500Y-99275000D01*
G75*
G02*
X127522500Y-99525000I0J-250000D01*
G01*
X127522500Y-100475000D01*
G75*
G02*
X127272500Y-100725000I-250000J0D01*
G01*
X126772500Y-100725000D01*
G75*
G02*
X126522500Y-100475000I0J250000D01*
G01*
G37*
G36*
G01*
X124622500Y-100475000D02*
X124622500Y-99525000D01*
G75*
G02*
X124872500Y-99275000I250000J0D01*
G01*
X125372500Y-99275000D01*
G75*
G02*
X125622500Y-99525000I0J-250000D01*
G01*
X125622500Y-100475000D01*
G75*
G02*
X125372500Y-100725000I-250000J0D01*
G01*
X124872500Y-100725000D01*
G75*
G02*
X124622500Y-100475000I0J250000D01*
G01*
G37*
%TD*%
%TO.C,C11*%
G36*
G01*
X131158500Y-118331000D02*
X131158500Y-117381000D01*
G75*
G02*
X131408500Y-117131000I250000J0D01*
G01*
X131908500Y-117131000D01*
G75*
G02*
X132158500Y-117381000I0J-250000D01*
G01*
X132158500Y-118331000D01*
G75*
G02*
X131908500Y-118581000I-250000J0D01*
G01*
X131408500Y-118581000D01*
G75*
G02*
X131158500Y-118331000I0J250000D01*
G01*
G37*
G36*
G01*
X129258500Y-118331000D02*
X129258500Y-117381000D01*
G75*
G02*
X129508500Y-117131000I250000J0D01*
G01*
X130008500Y-117131000D01*
G75*
G02*
X130258500Y-117381000I0J-250000D01*
G01*
X130258500Y-118331000D01*
G75*
G02*
X130008500Y-118581000I-250000J0D01*
G01*
X129508500Y-118581000D01*
G75*
G02*
X129258500Y-118331000I0J250000D01*
G01*
G37*
%TD*%
%TO.C,C12*%
G36*
G01*
X131183500Y-116172000D02*
X131183500Y-115222000D01*
G75*
G02*
X131433500Y-114972000I250000J0D01*
G01*
X131933500Y-114972000D01*
G75*
G02*
X132183500Y-115222000I0J-250000D01*
G01*
X132183500Y-116172000D01*
G75*
G02*
X131933500Y-116422000I-250000J0D01*
G01*
X131433500Y-116422000D01*
G75*
G02*
X131183500Y-116172000I0J250000D01*
G01*
G37*
G36*
G01*
X129283500Y-116172000D02*
X129283500Y-115222000D01*
G75*
G02*
X129533500Y-114972000I250000J0D01*
G01*
X130033500Y-114972000D01*
G75*
G02*
X130283500Y-115222000I0J-250000D01*
G01*
X130283500Y-116172000D01*
G75*
G02*
X130033500Y-116422000I-250000J0D01*
G01*
X129533500Y-116422000D01*
G75*
G02*
X129283500Y-116172000I0J250000D01*
G01*
G37*
%TD*%
%TO.C,C13*%
G36*
G01*
X131183500Y-114051000D02*
X131183500Y-113101000D01*
G75*
G02*
X131433500Y-112851000I250000J0D01*
G01*
X131933500Y-112851000D01*
G75*
G02*
X132183500Y-113101000I0J-250000D01*
G01*
X132183500Y-114051000D01*
G75*
G02*
X131933500Y-114301000I-250000J0D01*
G01*
X131433500Y-114301000D01*
G75*
G02*
X131183500Y-114051000I0J250000D01*
G01*
G37*
G36*
G01*
X129283500Y-114051000D02*
X129283500Y-113101000D01*
G75*
G02*
X129533500Y-112851000I250000J0D01*
G01*
X130033500Y-112851000D01*
G75*
G02*
X130283500Y-113101000I0J-250000D01*
G01*
X130283500Y-114051000D01*
G75*
G02*
X130033500Y-114301000I-250000J0D01*
G01*
X129533500Y-114301000D01*
G75*
G02*
X129283500Y-114051000I0J250000D01*
G01*
G37*
%TD*%
%TO.C,C21*%
G36*
G01*
X151823940Y-118437240D02*
X151823940Y-117487240D01*
G75*
G02*
X152073940Y-117237240I250000J0D01*
G01*
X152573940Y-117237240D01*
G75*
G02*
X152823940Y-117487240I0J-250000D01*
G01*
X152823940Y-118437240D01*
G75*
G02*
X152573940Y-118687240I-250000J0D01*
G01*
X152073940Y-118687240D01*
G75*
G02*
X151823940Y-118437240I0J250000D01*
G01*
G37*
G36*
G01*
X149923940Y-118437240D02*
X149923940Y-117487240D01*
G75*
G02*
X150173940Y-117237240I250000J0D01*
G01*
X150673940Y-117237240D01*
G75*
G02*
X150923940Y-117487240I0J-250000D01*
G01*
X150923940Y-118437240D01*
G75*
G02*
X150673940Y-118687240I-250000J0D01*
G01*
X150173940Y-118687240D01*
G75*
G02*
X149923940Y-118437240I0J250000D01*
G01*
G37*
%TD*%
%TO.C,C22*%
G36*
G01*
X151823940Y-116291240D02*
X151823940Y-115341240D01*
G75*
G02*
X152073940Y-115091240I250000J0D01*
G01*
X152573940Y-115091240D01*
G75*
G02*
X152823940Y-115341240I0J-250000D01*
G01*
X152823940Y-116291240D01*
G75*
G02*
X152573940Y-116541240I-250000J0D01*
G01*
X152073940Y-116541240D01*
G75*
G02*
X151823940Y-116291240I0J250000D01*
G01*
G37*
G36*
G01*
X149923940Y-116291240D02*
X149923940Y-115341240D01*
G75*
G02*
X150173940Y-115091240I250000J0D01*
G01*
X150673940Y-115091240D01*
G75*
G02*
X150923940Y-115341240I0J-250000D01*
G01*
X150923940Y-116291240D01*
G75*
G02*
X150673940Y-116541240I-250000J0D01*
G01*
X150173940Y-116541240D01*
G75*
G02*
X149923940Y-116291240I0J250000D01*
G01*
G37*
%TD*%
%TO.C,C23*%
G36*
G01*
X151823940Y-114221240D02*
X151823940Y-113271240D01*
G75*
G02*
X152073940Y-113021240I250000J0D01*
G01*
X152573940Y-113021240D01*
G75*
G02*
X152823940Y-113271240I0J-250000D01*
G01*
X152823940Y-114221240D01*
G75*
G02*
X152573940Y-114471240I-250000J0D01*
G01*
X152073940Y-114471240D01*
G75*
G02*
X151823940Y-114221240I0J250000D01*
G01*
G37*
G36*
G01*
X149923940Y-114221240D02*
X149923940Y-113271240D01*
G75*
G02*
X150173940Y-113021240I250000J0D01*
G01*
X150673940Y-113021240D01*
G75*
G02*
X150923940Y-113271240I0J-250000D01*
G01*
X150923940Y-114221240D01*
G75*
G02*
X150673940Y-114471240I-250000J0D01*
G01*
X150173940Y-114471240D01*
G75*
G02*
X149923940Y-114221240I0J250000D01*
G01*
G37*
%TD*%
%TO.C,Css1*%
G36*
G01*
X153171940Y-101574240D02*
X153171940Y-102524240D01*
G75*
G02*
X152921940Y-102774240I-250000J0D01*
G01*
X152421940Y-102774240D01*
G75*
G02*
X152171940Y-102524240I0J250000D01*
G01*
X152171940Y-101574240D01*
G75*
G02*
X152421940Y-101324240I250000J0D01*
G01*
X152921940Y-101324240D01*
G75*
G02*
X153171940Y-101574240I0J-250000D01*
G01*
G37*
G36*
G01*
X155071940Y-101574240D02*
X155071940Y-102524240D01*
G75*
G02*
X154821940Y-102774240I-250000J0D01*
G01*
X154321940Y-102774240D01*
G75*
G02*
X154071940Y-102524240I0J250000D01*
G01*
X154071940Y-101574240D01*
G75*
G02*
X154321940Y-101324240I250000J0D01*
G01*
X154821940Y-101324240D01*
G75*
G02*
X155071940Y-101574240I0J-250000D01*
G01*
G37*
%TD*%
%TO.C,Css2*%
G36*
G01*
X132633500Y-101570000D02*
X132633500Y-102520000D01*
G75*
G02*
X132383500Y-102770000I-250000J0D01*
G01*
X131883500Y-102770000D01*
G75*
G02*
X131633500Y-102520000I0J250000D01*
G01*
X131633500Y-101570000D01*
G75*
G02*
X131883500Y-101320000I250000J0D01*
G01*
X132383500Y-101320000D01*
G75*
G02*
X132633500Y-101570000I0J-250000D01*
G01*
G37*
G36*
G01*
X134533500Y-101570000D02*
X134533500Y-102520000D01*
G75*
G02*
X134283500Y-102770000I-250000J0D01*
G01*
X133783500Y-102770000D01*
G75*
G02*
X133533500Y-102520000I0J250000D01*
G01*
X133533500Y-101570000D01*
G75*
G02*
X133783500Y-101320000I250000J0D01*
G01*
X134283500Y-101320000D01*
G75*
G02*
X134533500Y-101570000I0J-250000D01*
G01*
G37*
%TD*%
D24*
%TO.C,J1*%
X124996000Y-87887500D03*
X121996000Y-83187500D03*
D25*
X127996000Y-83187500D03*
%TD*%
%TO.C,R1*%
G36*
G01*
X146934940Y-100391241D02*
X146934940Y-99491239D01*
G75*
G02*
X147184939Y-99241240I249999J0D01*
G01*
X147709941Y-99241240D01*
G75*
G02*
X147959940Y-99491239I0J-249999D01*
G01*
X147959940Y-100391241D01*
G75*
G02*
X147709941Y-100641240I-249999J0D01*
G01*
X147184939Y-100641240D01*
G75*
G02*
X146934940Y-100391241I0J249999D01*
G01*
G37*
G36*
G01*
X145109940Y-100391241D02*
X145109940Y-99491239D01*
G75*
G02*
X145359939Y-99241240I249999J0D01*
G01*
X145884941Y-99241240D01*
G75*
G02*
X146134940Y-99491239I0J-249999D01*
G01*
X146134940Y-100391241D01*
G75*
G02*
X145884941Y-100641240I-249999J0D01*
G01*
X145359939Y-100641240D01*
G75*
G02*
X145109940Y-100391241I0J249999D01*
G01*
G37*
%TD*%
%TO.C,R2*%
G36*
G01*
X150490940Y-102525241D02*
X150490940Y-101625239D01*
G75*
G02*
X150740939Y-101375240I249999J0D01*
G01*
X151265941Y-101375240D01*
G75*
G02*
X151515940Y-101625239I0J-249999D01*
G01*
X151515940Y-102525241D01*
G75*
G02*
X151265941Y-102775240I-249999J0D01*
G01*
X150740939Y-102775240D01*
G75*
G02*
X150490940Y-102525241I0J249999D01*
G01*
G37*
G36*
G01*
X148665940Y-102525241D02*
X148665940Y-101625239D01*
G75*
G02*
X148915939Y-101375240I249999J0D01*
G01*
X149440941Y-101375240D01*
G75*
G02*
X149690940Y-101625239I0J-249999D01*
G01*
X149690940Y-102525241D01*
G75*
G02*
X149440941Y-102775240I-249999J0D01*
G01*
X148915939Y-102775240D01*
G75*
G02*
X148665940Y-102525241I0J249999D01*
G01*
G37*
%TD*%
%TO.C,R52*%
G36*
G01*
X123628500Y-104756999D02*
X123628500Y-105657001D01*
G75*
G02*
X123378501Y-105907000I-249999J0D01*
G01*
X122853499Y-105907000D01*
G75*
G02*
X122603500Y-105657001I0J249999D01*
G01*
X122603500Y-104756999D01*
G75*
G02*
X122853499Y-104507000I249999J0D01*
G01*
X123378501Y-104507000D01*
G75*
G02*
X123628500Y-104756999I0J-249999D01*
G01*
G37*
G36*
G01*
X125453500Y-104756999D02*
X125453500Y-105657001D01*
G75*
G02*
X125203501Y-105907000I-249999J0D01*
G01*
X124678499Y-105907000D01*
G75*
G02*
X124428500Y-105657001I0J249999D01*
G01*
X124428500Y-104756999D01*
G75*
G02*
X124678499Y-104507000I249999J0D01*
G01*
X125203501Y-104507000D01*
G75*
G02*
X125453500Y-104756999I0J-249999D01*
G01*
G37*
%TD*%
%TO.C,R12*%
G36*
G01*
X126498500Y-102545001D02*
X126498500Y-101644999D01*
G75*
G02*
X126748499Y-101395000I249999J0D01*
G01*
X127273501Y-101395000D01*
G75*
G02*
X127523500Y-101644999I0J-249999D01*
G01*
X127523500Y-102545001D01*
G75*
G02*
X127273501Y-102795000I-249999J0D01*
G01*
X126748499Y-102795000D01*
G75*
G02*
X126498500Y-102545001I0J249999D01*
G01*
G37*
G36*
G01*
X124673500Y-102545001D02*
X124673500Y-101644999D01*
G75*
G02*
X124923499Y-101395000I249999J0D01*
G01*
X125448501Y-101395000D01*
G75*
G02*
X125698500Y-101644999I0J-249999D01*
G01*
X125698500Y-102545001D01*
G75*
G02*
X125448501Y-102795000I-249999J0D01*
G01*
X124923499Y-102795000D01*
G75*
G02*
X124673500Y-102545001I0J249999D01*
G01*
G37*
%TD*%
%TO.C,R5*%
G36*
G01*
X145896480Y-104893919D02*
X145896480Y-105793921D01*
G75*
G02*
X145646481Y-106043920I-249999J0D01*
G01*
X145121479Y-106043920D01*
G75*
G02*
X144871480Y-105793921I0J249999D01*
G01*
X144871480Y-104893919D01*
G75*
G02*
X145121479Y-104643920I249999J0D01*
G01*
X145646481Y-104643920D01*
G75*
G02*
X145896480Y-104893919I0J-249999D01*
G01*
G37*
G36*
G01*
X147721480Y-104893919D02*
X147721480Y-105793921D01*
G75*
G02*
X147471481Y-106043920I-249999J0D01*
G01*
X146946479Y-106043920D01*
G75*
G02*
X146696480Y-105793921I0J249999D01*
G01*
X146696480Y-104893919D01*
G75*
G02*
X146946479Y-104643920I249999J0D01*
G01*
X147471481Y-104643920D01*
G75*
G02*
X147721480Y-104893919I0J-249999D01*
G01*
G37*
%TD*%
%TO.C,R6*%
G36*
G01*
X139615759Y-87605820D02*
X140515761Y-87605820D01*
G75*
G02*
X140765760Y-87855819I0J-249999D01*
G01*
X140765760Y-88380821D01*
G75*
G02*
X140515761Y-88630820I-249999J0D01*
G01*
X139615759Y-88630820D01*
G75*
G02*
X139365760Y-88380821I0J249999D01*
G01*
X139365760Y-87855819D01*
G75*
G02*
X139615759Y-87605820I249999J0D01*
G01*
G37*
G36*
G01*
X139615759Y-85780820D02*
X140515761Y-85780820D01*
G75*
G02*
X140765760Y-86030819I0J-249999D01*
G01*
X140765760Y-86555821D01*
G75*
G02*
X140515761Y-86805820I-249999J0D01*
G01*
X139615759Y-86805820D01*
G75*
G02*
X139365760Y-86555821I0J249999D01*
G01*
X139365760Y-86030819D01*
G75*
G02*
X139615759Y-85780820I249999J0D01*
G01*
G37*
%TD*%
%TO.C,R22*%
G36*
G01*
X129990500Y-102520001D02*
X129990500Y-101619999D01*
G75*
G02*
X130240499Y-101370000I249999J0D01*
G01*
X130765501Y-101370000D01*
G75*
G02*
X131015500Y-101619999I0J-249999D01*
G01*
X131015500Y-102520001D01*
G75*
G02*
X130765501Y-102770000I-249999J0D01*
G01*
X130240499Y-102770000D01*
G75*
G02*
X129990500Y-102520001I0J249999D01*
G01*
G37*
G36*
G01*
X128165500Y-102520001D02*
X128165500Y-101619999D01*
G75*
G02*
X128415499Y-101370000I249999J0D01*
G01*
X128940501Y-101370000D01*
G75*
G02*
X129190500Y-101619999I0J-249999D01*
G01*
X129190500Y-102520001D01*
G75*
G02*
X128940501Y-102770000I-249999J0D01*
G01*
X128415499Y-102770000D01*
G75*
G02*
X128165500Y-102520001I0J249999D01*
G01*
G37*
%TD*%
D26*
%TO.C,U1*%
X152021940Y-105974240D03*
G36*
G01*
X150346940Y-107729240D02*
X150346940Y-108029240D01*
G75*
G02*
X150196940Y-108179240I-150000J0D01*
G01*
X148721940Y-108179240D01*
G75*
G02*
X148571940Y-108029240I0J150000D01*
G01*
X148571940Y-107729240D01*
G75*
G02*
X148721940Y-107579240I150000J0D01*
G01*
X150196940Y-107579240D01*
G75*
G02*
X150346940Y-107729240I0J-150000D01*
G01*
G37*
G36*
G01*
X150346940Y-106459240D02*
X150346940Y-106759240D01*
G75*
G02*
X150196940Y-106909240I-150000J0D01*
G01*
X148721940Y-106909240D01*
G75*
G02*
X148571940Y-106759240I0J150000D01*
G01*
X148571940Y-106459240D01*
G75*
G02*
X148721940Y-106309240I150000J0D01*
G01*
X150196940Y-106309240D01*
G75*
G02*
X150346940Y-106459240I0J-150000D01*
G01*
G37*
G36*
G01*
X150346940Y-105189240D02*
X150346940Y-105489240D01*
G75*
G02*
X150196940Y-105639240I-150000J0D01*
G01*
X148721940Y-105639240D01*
G75*
G02*
X148571940Y-105489240I0J150000D01*
G01*
X148571940Y-105189240D01*
G75*
G02*
X148721940Y-105039240I150000J0D01*
G01*
X150196940Y-105039240D01*
G75*
G02*
X150346940Y-105189240I0J-150000D01*
G01*
G37*
G36*
G01*
X150346940Y-103919240D02*
X150346940Y-104219240D01*
G75*
G02*
X150196940Y-104369240I-150000J0D01*
G01*
X148721940Y-104369240D01*
G75*
G02*
X148571940Y-104219240I0J150000D01*
G01*
X148571940Y-103919240D01*
G75*
G02*
X148721940Y-103769240I150000J0D01*
G01*
X150196940Y-103769240D01*
G75*
G02*
X150346940Y-103919240I0J-150000D01*
G01*
G37*
G36*
G01*
X155471940Y-103919240D02*
X155471940Y-104219240D01*
G75*
G02*
X155321940Y-104369240I-150000J0D01*
G01*
X153846940Y-104369240D01*
G75*
G02*
X153696940Y-104219240I0J150000D01*
G01*
X153696940Y-103919240D01*
G75*
G02*
X153846940Y-103769240I150000J0D01*
G01*
X155321940Y-103769240D01*
G75*
G02*
X155471940Y-103919240I0J-150000D01*
G01*
G37*
G36*
G01*
X155471940Y-105189240D02*
X155471940Y-105489240D01*
G75*
G02*
X155321940Y-105639240I-150000J0D01*
G01*
X153846940Y-105639240D01*
G75*
G02*
X153696940Y-105489240I0J150000D01*
G01*
X153696940Y-105189240D01*
G75*
G02*
X153846940Y-105039240I150000J0D01*
G01*
X155321940Y-105039240D01*
G75*
G02*
X155471940Y-105189240I0J-150000D01*
G01*
G37*
G36*
G01*
X155471940Y-106459240D02*
X155471940Y-106759240D01*
G75*
G02*
X155321940Y-106909240I-150000J0D01*
G01*
X153846940Y-106909240D01*
G75*
G02*
X153696940Y-106759240I0J150000D01*
G01*
X153696940Y-106459240D01*
G75*
G02*
X153846940Y-106309240I150000J0D01*
G01*
X155321940Y-106309240D01*
G75*
G02*
X155471940Y-106459240I0J-150000D01*
G01*
G37*
G36*
G01*
X155471940Y-107729240D02*
X155471940Y-108029240D01*
G75*
G02*
X155321940Y-108179240I-150000J0D01*
G01*
X153846940Y-108179240D01*
G75*
G02*
X153696940Y-108029240I0J150000D01*
G01*
X153696940Y-107729240D01*
G75*
G02*
X153846940Y-107579240I150000J0D01*
G01*
X155321940Y-107579240D01*
G75*
G02*
X155471940Y-107729240I0J-150000D01*
G01*
G37*
%TD*%
%TO.C,U2*%
X131432500Y-105893000D03*
G36*
G01*
X129757500Y-107648000D02*
X129757500Y-107948000D01*
G75*
G02*
X129607500Y-108098000I-150000J0D01*
G01*
X128132500Y-108098000D01*
G75*
G02*
X127982500Y-107948000I0J150000D01*
G01*
X127982500Y-107648000D01*
G75*
G02*
X128132500Y-107498000I150000J0D01*
G01*
X129607500Y-107498000D01*
G75*
G02*
X129757500Y-107648000I0J-150000D01*
G01*
G37*
G36*
G01*
X129757500Y-106378000D02*
X129757500Y-106678000D01*
G75*
G02*
X129607500Y-106828000I-150000J0D01*
G01*
X128132500Y-106828000D01*
G75*
G02*
X127982500Y-106678000I0J150000D01*
G01*
X127982500Y-106378000D01*
G75*
G02*
X128132500Y-106228000I150000J0D01*
G01*
X129607500Y-106228000D01*
G75*
G02*
X129757500Y-106378000I0J-150000D01*
G01*
G37*
G36*
G01*
X129757500Y-105108000D02*
X129757500Y-105408000D01*
G75*
G02*
X129607500Y-105558000I-150000J0D01*
G01*
X128132500Y-105558000D01*
G75*
G02*
X127982500Y-105408000I0J150000D01*
G01*
X127982500Y-105108000D01*
G75*
G02*
X128132500Y-104958000I150000J0D01*
G01*
X129607500Y-104958000D01*
G75*
G02*
X129757500Y-105108000I0J-150000D01*
G01*
G37*
G36*
G01*
X129757500Y-103838000D02*
X129757500Y-104138000D01*
G75*
G02*
X129607500Y-104288000I-150000J0D01*
G01*
X128132500Y-104288000D01*
G75*
G02*
X127982500Y-104138000I0J150000D01*
G01*
X127982500Y-103838000D01*
G75*
G02*
X128132500Y-103688000I150000J0D01*
G01*
X129607500Y-103688000D01*
G75*
G02*
X129757500Y-103838000I0J-150000D01*
G01*
G37*
G36*
G01*
X134882500Y-103838000D02*
X134882500Y-104138000D01*
G75*
G02*
X134732500Y-104288000I-150000J0D01*
G01*
X133257500Y-104288000D01*
G75*
G02*
X133107500Y-104138000I0J150000D01*
G01*
X133107500Y-103838000D01*
G75*
G02*
X133257500Y-103688000I150000J0D01*
G01*
X134732500Y-103688000D01*
G75*
G02*
X134882500Y-103838000I0J-150000D01*
G01*
G37*
G36*
G01*
X134882500Y-105108000D02*
X134882500Y-105408000D01*
G75*
G02*
X134732500Y-105558000I-150000J0D01*
G01*
X133257500Y-105558000D01*
G75*
G02*
X133107500Y-105408000I0J150000D01*
G01*
X133107500Y-105108000D01*
G75*
G02*
X133257500Y-104958000I150000J0D01*
G01*
X134732500Y-104958000D01*
G75*
G02*
X134882500Y-105108000I0J-150000D01*
G01*
G37*
G36*
G01*
X134882500Y-106378000D02*
X134882500Y-106678000D01*
G75*
G02*
X134732500Y-106828000I-150000J0D01*
G01*
X133257500Y-106828000D01*
G75*
G02*
X133107500Y-106678000I0J150000D01*
G01*
X133107500Y-106378000D01*
G75*
G02*
X133257500Y-106228000I150000J0D01*
G01*
X134732500Y-106228000D01*
G75*
G02*
X134882500Y-106378000I0J-150000D01*
G01*
G37*
G36*
G01*
X134882500Y-107648000D02*
X134882500Y-107948000D01*
G75*
G02*
X134732500Y-108098000I-150000J0D01*
G01*
X133257500Y-108098000D01*
G75*
G02*
X133107500Y-107948000I0J150000D01*
G01*
X133107500Y-107648000D01*
G75*
G02*
X133257500Y-107498000I150000J0D01*
G01*
X134732500Y-107498000D01*
G75*
G02*
X134882500Y-107648000I0J-150000D01*
G01*
G37*
%TD*%
%TO.C,C9*%
G36*
G01*
X153664900Y-89863080D02*
X154614900Y-89863080D01*
G75*
G02*
X154864900Y-90113080I0J-250000D01*
G01*
X154864900Y-90613080D01*
G75*
G02*
X154614900Y-90863080I-250000J0D01*
G01*
X153664900Y-90863080D01*
G75*
G02*
X153414900Y-90613080I0J250000D01*
G01*
X153414900Y-90113080D01*
G75*
G02*
X153664900Y-89863080I250000J0D01*
G01*
G37*
G36*
G01*
X153664900Y-87963080D02*
X154614900Y-87963080D01*
G75*
G02*
X154864900Y-88213080I0J-250000D01*
G01*
X154864900Y-88713080D01*
G75*
G02*
X154614900Y-88963080I-250000J0D01*
G01*
X153664900Y-88963080D01*
G75*
G02*
X153414900Y-88713080I0J250000D01*
G01*
X153414900Y-88213080D01*
G75*
G02*
X153664900Y-87963080I250000J0D01*
G01*
G37*
%TD*%
M02*
