%TF.GenerationSoftware,KiCad,Pcbnew,(5.1.10)-1*%
%TF.CreationDate,2021-08-21T14:03:18+05:30*%
%TF.ProjectId,5V_DC-DC_Converter,35565f44-432d-4444-935f-436f6e766572,v01*%
%TF.SameCoordinates,Original*%
%TF.FileFunction,Legend,Top*%
%TF.FilePolarity,Positive*%
%FSLAX46Y46*%
G04 Gerber Fmt 4.6, Leading zero omitted, Abs format (unit mm)*
G04 Created by KiCad (PCBNEW (5.1.10)-1) date 2021-08-21 14:03:18*
%MOMM*%
%LPD*%
G01*
G04 APERTURE LIST*
%ADD10C,0.150000*%
%ADD11C,0.120000*%
%ADD12C,0.100000*%
%ADD13C,0.254000*%
G04 APERTURE END LIST*
D10*
X174974915Y-80972297D02*
X175150296Y-81463363D01*
X175325677Y-80972297D01*
X175746591Y-80726763D02*
X175816743Y-80726763D01*
X175886896Y-80761840D01*
X175921972Y-80796916D01*
X175957048Y-80867068D01*
X175992124Y-81007373D01*
X175992124Y-81182754D01*
X175957048Y-81323059D01*
X175921972Y-81393211D01*
X175886896Y-81428287D01*
X175816743Y-81463363D01*
X175746591Y-81463363D01*
X175676439Y-81428287D01*
X175641362Y-81393211D01*
X175606286Y-81323059D01*
X175571210Y-81182754D01*
X175571210Y-81007373D01*
X175606286Y-80867068D01*
X175641362Y-80796916D01*
X175676439Y-80761840D01*
X175746591Y-80726763D01*
X176693648Y-81463363D02*
X176272734Y-81463363D01*
X176483191Y-81463363D02*
X176483191Y-80726763D01*
X176413039Y-80831992D01*
X176342886Y-80902144D01*
X176272734Y-80937220D01*
X162442797Y-78561474D02*
X162079940Y-78561474D01*
X162043654Y-78924331D01*
X162079940Y-78888045D01*
X162152511Y-78851760D01*
X162333940Y-78851760D01*
X162406511Y-78888045D01*
X162442797Y-78924331D01*
X162479082Y-78996902D01*
X162479082Y-79178331D01*
X162442797Y-79250902D01*
X162406511Y-79287188D01*
X162333940Y-79323474D01*
X162152511Y-79323474D01*
X162079940Y-79287188D01*
X162043654Y-79250902D01*
X162696797Y-78561474D02*
X162950797Y-79323474D01*
X163204797Y-78561474D01*
X163458797Y-79033188D02*
X164039368Y-79033188D01*
X164329654Y-78561474D02*
X164801368Y-78561474D01*
X164547368Y-78851760D01*
X164656225Y-78851760D01*
X164728797Y-78888045D01*
X164765082Y-78924331D01*
X164801368Y-78996902D01*
X164801368Y-79178331D01*
X164765082Y-79250902D01*
X164728797Y-79287188D01*
X164656225Y-79323474D01*
X164438511Y-79323474D01*
X164365940Y-79287188D01*
X164329654Y-79250902D01*
X165127940Y-79250902D02*
X165164225Y-79287188D01*
X165127940Y-79323474D01*
X165091654Y-79287188D01*
X165127940Y-79250902D01*
X165127940Y-79323474D01*
X165418225Y-78561474D02*
X165889940Y-78561474D01*
X165635940Y-78851760D01*
X165744797Y-78851760D01*
X165817368Y-78888045D01*
X165853654Y-78924331D01*
X165889940Y-78996902D01*
X165889940Y-79178331D01*
X165853654Y-79250902D01*
X165817368Y-79287188D01*
X165744797Y-79323474D01*
X165527082Y-79323474D01*
X165454511Y-79287188D01*
X165418225Y-79250902D01*
X166107654Y-78561474D02*
X166361654Y-79323474D01*
X166615654Y-78561474D01*
X166688225Y-79396045D02*
X167268797Y-79396045D01*
X167450225Y-79323474D02*
X167450225Y-78561474D01*
X167631654Y-78561474D01*
X167740511Y-78597760D01*
X167813082Y-78670331D01*
X167849368Y-78742902D01*
X167885654Y-78888045D01*
X167885654Y-78996902D01*
X167849368Y-79142045D01*
X167813082Y-79214617D01*
X167740511Y-79287188D01*
X167631654Y-79323474D01*
X167450225Y-79323474D01*
X168647654Y-79250902D02*
X168611368Y-79287188D01*
X168502511Y-79323474D01*
X168429940Y-79323474D01*
X168321082Y-79287188D01*
X168248511Y-79214617D01*
X168212225Y-79142045D01*
X168175940Y-78996902D01*
X168175940Y-78888045D01*
X168212225Y-78742902D01*
X168248511Y-78670331D01*
X168321082Y-78597760D01*
X168429940Y-78561474D01*
X168502511Y-78561474D01*
X168611368Y-78597760D01*
X168647654Y-78634045D01*
X168974225Y-79033188D02*
X169554797Y-79033188D01*
X169917654Y-79323474D02*
X169917654Y-78561474D01*
X170099082Y-78561474D01*
X170207940Y-78597760D01*
X170280511Y-78670331D01*
X170316797Y-78742902D01*
X170353082Y-78888045D01*
X170353082Y-78996902D01*
X170316797Y-79142045D01*
X170280511Y-79214617D01*
X170207940Y-79287188D01*
X170099082Y-79323474D01*
X169917654Y-79323474D01*
X171115082Y-79250902D02*
X171078797Y-79287188D01*
X170969940Y-79323474D01*
X170897368Y-79323474D01*
X170788511Y-79287188D01*
X170715940Y-79214617D01*
X170679654Y-79142045D01*
X170643368Y-78996902D01*
X170643368Y-78888045D01*
X170679654Y-78742902D01*
X170715940Y-78670331D01*
X170788511Y-78597760D01*
X170897368Y-78561474D01*
X170969940Y-78561474D01*
X171078797Y-78597760D01*
X171115082Y-78634045D01*
X171260225Y-79396045D02*
X171840797Y-79396045D01*
X172457654Y-79250902D02*
X172421368Y-79287188D01*
X172312511Y-79323474D01*
X172239940Y-79323474D01*
X172131082Y-79287188D01*
X172058511Y-79214617D01*
X172022225Y-79142045D01*
X171985940Y-78996902D01*
X171985940Y-78888045D01*
X172022225Y-78742902D01*
X172058511Y-78670331D01*
X172131082Y-78597760D01*
X172239940Y-78561474D01*
X172312511Y-78561474D01*
X172421368Y-78597760D01*
X172457654Y-78634045D01*
X172893082Y-79323474D02*
X172820511Y-79287188D01*
X172784225Y-79250902D01*
X172747940Y-79178331D01*
X172747940Y-78960617D01*
X172784225Y-78888045D01*
X172820511Y-78851760D01*
X172893082Y-78815474D01*
X173001940Y-78815474D01*
X173074511Y-78851760D01*
X173110797Y-78888045D01*
X173147082Y-78960617D01*
X173147082Y-79178331D01*
X173110797Y-79250902D01*
X173074511Y-79287188D01*
X173001940Y-79323474D01*
X172893082Y-79323474D01*
X173473654Y-78815474D02*
X173473654Y-79323474D01*
X173473654Y-78888045D02*
X173509940Y-78851760D01*
X173582511Y-78815474D01*
X173691368Y-78815474D01*
X173763940Y-78851760D01*
X173800225Y-78924331D01*
X173800225Y-79323474D01*
X174090511Y-78815474D02*
X174271940Y-79323474D01*
X174453368Y-78815474D01*
X175033940Y-79287188D02*
X174961368Y-79323474D01*
X174816225Y-79323474D01*
X174743654Y-79287188D01*
X174707368Y-79214617D01*
X174707368Y-78924331D01*
X174743654Y-78851760D01*
X174816225Y-78815474D01*
X174961368Y-78815474D01*
X175033940Y-78851760D01*
X175070225Y-78924331D01*
X175070225Y-78996902D01*
X174707368Y-79069474D01*
X175396797Y-79323474D02*
X175396797Y-78815474D01*
X175396797Y-78960617D02*
X175433082Y-78888045D01*
X175469368Y-78851760D01*
X175541940Y-78815474D01*
X175614511Y-78815474D01*
X175759654Y-78815474D02*
X176049940Y-78815474D01*
X175868511Y-78561474D02*
X175868511Y-79214617D01*
X175904797Y-79287188D01*
X175977368Y-79323474D01*
X176049940Y-79323474D01*
X176594225Y-79287188D02*
X176521654Y-79323474D01*
X176376511Y-79323474D01*
X176303940Y-79287188D01*
X176267654Y-79214617D01*
X176267654Y-78924331D01*
X176303940Y-78851760D01*
X176376511Y-78815474D01*
X176521654Y-78815474D01*
X176594225Y-78851760D01*
X176630511Y-78924331D01*
X176630511Y-78996902D01*
X176267654Y-79069474D01*
X176957082Y-79323474D02*
X176957082Y-78815474D01*
X176957082Y-78960617D02*
X176993368Y-78888045D01*
X177029654Y-78851760D01*
X177102225Y-78815474D01*
X177174797Y-78815474D01*
X162168434Y-115193165D02*
X162614520Y-115193165D01*
X162374320Y-115467680D01*
X162477262Y-115467680D01*
X162545891Y-115501994D01*
X162580205Y-115536308D01*
X162614520Y-115604937D01*
X162614520Y-115776508D01*
X162580205Y-115845137D01*
X162545891Y-115879451D01*
X162477262Y-115913765D01*
X162271377Y-115913765D01*
X162202748Y-115879451D01*
X162168434Y-115845137D01*
X162923348Y-115845137D02*
X162957662Y-115879451D01*
X162923348Y-115913765D01*
X162889034Y-115879451D01*
X162923348Y-115845137D01*
X162923348Y-115913765D01*
X163197862Y-115193165D02*
X163643948Y-115193165D01*
X163403748Y-115467680D01*
X163506691Y-115467680D01*
X163575320Y-115501994D01*
X163609634Y-115536308D01*
X163643948Y-115604937D01*
X163643948Y-115776508D01*
X163609634Y-115845137D01*
X163575320Y-115879451D01*
X163506691Y-115913765D01*
X163300805Y-115913765D01*
X163232177Y-115879451D01*
X163197862Y-115845137D01*
X163849834Y-115193165D02*
X164090034Y-115913765D01*
X164330234Y-115193165D01*
X164398862Y-115982394D02*
X164947891Y-115982394D01*
X165085148Y-115707880D02*
X165428291Y-115707880D01*
X165016520Y-115913765D02*
X165256720Y-115193165D01*
X165496920Y-115913765D01*
X165737120Y-115913765D02*
X165737120Y-115193165D01*
X165908691Y-115193165D01*
X166011634Y-115227480D01*
X166080262Y-115296108D01*
X166114577Y-115364737D01*
X166148891Y-115501994D01*
X166148891Y-115604937D01*
X166114577Y-115742194D01*
X166080262Y-115810822D01*
X166011634Y-115879451D01*
X165908691Y-115913765D01*
X165737120Y-115913765D01*
X166869491Y-115845137D02*
X166835177Y-115879451D01*
X166732234Y-115913765D01*
X166663605Y-115913765D01*
X166560662Y-115879451D01*
X166492034Y-115810822D01*
X166457720Y-115742194D01*
X166423405Y-115604937D01*
X166423405Y-115501994D01*
X166457720Y-115364737D01*
X166492034Y-115296108D01*
X166560662Y-115227480D01*
X166663605Y-115193165D01*
X166732234Y-115193165D01*
X166835177Y-115227480D01*
X166869491Y-115261794D01*
X165170731Y-112702720D02*
X165102102Y-112668405D01*
X164999160Y-112668405D01*
X164896217Y-112702720D01*
X164827588Y-112771348D01*
X164793274Y-112839977D01*
X164758960Y-112977234D01*
X164758960Y-113080177D01*
X164793274Y-113217434D01*
X164827588Y-113286062D01*
X164896217Y-113354691D01*
X164999160Y-113389005D01*
X165067788Y-113389005D01*
X165170731Y-113354691D01*
X165205045Y-113320377D01*
X165205045Y-113080177D01*
X165067788Y-113080177D01*
X165513874Y-113389005D02*
X165513874Y-112668405D01*
X165925645Y-113389005D01*
X165925645Y-112668405D01*
X166268788Y-113389005D02*
X166268788Y-112668405D01*
X166440360Y-112668405D01*
X166543302Y-112702720D01*
X166611931Y-112771348D01*
X166646245Y-112839977D01*
X166680560Y-112977234D01*
X166680560Y-113080177D01*
X166646245Y-113217434D01*
X166611931Y-113286062D01*
X166543302Y-113354691D01*
X166440360Y-113389005D01*
X166268788Y-113389005D01*
X165081831Y-110111920D02*
X165013202Y-110077605D01*
X164910260Y-110077605D01*
X164807317Y-110111920D01*
X164738688Y-110180548D01*
X164704374Y-110249177D01*
X164670060Y-110386434D01*
X164670060Y-110489377D01*
X164704374Y-110626634D01*
X164738688Y-110695262D01*
X164807317Y-110763891D01*
X164910260Y-110798205D01*
X164978888Y-110798205D01*
X165081831Y-110763891D01*
X165116145Y-110729577D01*
X165116145Y-110489377D01*
X164978888Y-110489377D01*
X165424974Y-110798205D02*
X165424974Y-110077605D01*
X165836745Y-110798205D01*
X165836745Y-110077605D01*
X166179888Y-110798205D02*
X166179888Y-110077605D01*
X166351460Y-110077605D01*
X166454402Y-110111920D01*
X166523031Y-110180548D01*
X166557345Y-110249177D01*
X166591660Y-110386434D01*
X166591660Y-110489377D01*
X166557345Y-110626634D01*
X166523031Y-110695262D01*
X166454402Y-110763891D01*
X166351460Y-110798205D01*
X166179888Y-110798205D01*
X161825340Y-107957034D02*
X161825340Y-107312634D01*
X162040140Y-107772920D01*
X162254940Y-107312634D01*
X162254940Y-107957034D01*
X162930025Y-107895662D02*
X162899340Y-107926348D01*
X162807282Y-107957034D01*
X162745911Y-107957034D01*
X162653854Y-107926348D01*
X162592482Y-107864977D01*
X162561797Y-107803605D01*
X162531111Y-107680862D01*
X162531111Y-107588805D01*
X162561797Y-107466062D01*
X162592482Y-107404691D01*
X162653854Y-107343320D01*
X162745911Y-107312634D01*
X162807282Y-107312634D01*
X162899340Y-107343320D01*
X162930025Y-107374005D01*
X163052768Y-108018405D02*
X163543740Y-108018405D01*
X163819911Y-107312634D02*
X163942654Y-107312634D01*
X164004025Y-107343320D01*
X164065397Y-107404691D01*
X164096082Y-107527434D01*
X164096082Y-107742234D01*
X164065397Y-107864977D01*
X164004025Y-107926348D01*
X163942654Y-107957034D01*
X163819911Y-107957034D01*
X163758540Y-107926348D01*
X163697168Y-107864977D01*
X163666482Y-107742234D01*
X163666482Y-107527434D01*
X163697168Y-107404691D01*
X163758540Y-107343320D01*
X163819911Y-107312634D01*
X164648425Y-107527434D02*
X164648425Y-107957034D01*
X164372254Y-107527434D02*
X164372254Y-107864977D01*
X164402940Y-107926348D01*
X164464311Y-107957034D01*
X164556368Y-107957034D01*
X164617740Y-107926348D01*
X164648425Y-107895662D01*
X164863225Y-107527434D02*
X165108711Y-107527434D01*
X164955282Y-107312634D02*
X164955282Y-107864977D01*
X164985968Y-107926348D01*
X165047340Y-107957034D01*
X165108711Y-107957034D01*
X165323511Y-107527434D02*
X165323511Y-108171834D01*
X165323511Y-107558120D02*
X165384882Y-107527434D01*
X165507625Y-107527434D01*
X165568997Y-107558120D01*
X165599682Y-107588805D01*
X165630368Y-107650177D01*
X165630368Y-107834291D01*
X165599682Y-107895662D01*
X165568997Y-107926348D01*
X165507625Y-107957034D01*
X165384882Y-107957034D01*
X165323511Y-107926348D01*
X166182711Y-107527434D02*
X166182711Y-107957034D01*
X165906540Y-107527434D02*
X165906540Y-107864977D01*
X165937225Y-107926348D01*
X165998597Y-107957034D01*
X166090654Y-107957034D01*
X166152025Y-107926348D01*
X166182711Y-107895662D01*
X166397511Y-107527434D02*
X166642997Y-107527434D01*
X166489568Y-107312634D02*
X166489568Y-107864977D01*
X166520254Y-107926348D01*
X166581625Y-107957034D01*
X166642997Y-107957034D01*
X162092331Y-105735985D02*
X162092331Y-105015385D01*
X162332531Y-105530100D01*
X162572731Y-105015385D01*
X162572731Y-105735985D01*
X163327645Y-105667357D02*
X163293331Y-105701671D01*
X163190388Y-105735985D01*
X163121760Y-105735985D01*
X163018817Y-105701671D01*
X162950188Y-105633042D01*
X162915874Y-105564414D01*
X162881560Y-105427157D01*
X162881560Y-105324214D01*
X162915874Y-105186957D01*
X162950188Y-105118328D01*
X163018817Y-105049700D01*
X163121760Y-105015385D01*
X163190388Y-105015385D01*
X163293331Y-105049700D01*
X163327645Y-105084014D01*
X163464902Y-105804614D02*
X164013931Y-105804614D01*
X164185502Y-105735985D02*
X164185502Y-105015385D01*
X164528645Y-105255585D02*
X164528645Y-105735985D01*
X164528645Y-105324214D02*
X164562960Y-105289900D01*
X164631588Y-105255585D01*
X164734531Y-105255585D01*
X164803160Y-105289900D01*
X164837474Y-105358528D01*
X164837474Y-105735985D01*
X165180617Y-105255585D02*
X165180617Y-105976185D01*
X165180617Y-105289900D02*
X165249245Y-105255585D01*
X165386502Y-105255585D01*
X165455131Y-105289900D01*
X165489445Y-105324214D01*
X165523760Y-105392842D01*
X165523760Y-105598728D01*
X165489445Y-105667357D01*
X165455131Y-105701671D01*
X165386502Y-105735985D01*
X165249245Y-105735985D01*
X165180617Y-105701671D01*
X166141417Y-105255585D02*
X166141417Y-105735985D01*
X165832588Y-105255585D02*
X165832588Y-105633042D01*
X165866902Y-105701671D01*
X165935531Y-105735985D01*
X166038474Y-105735985D01*
X166107102Y-105701671D01*
X166141417Y-105667357D01*
X166381617Y-105255585D02*
X166656131Y-105255585D01*
X166484560Y-105015385D02*
X166484560Y-105633042D01*
X166518874Y-105701671D01*
X166587502Y-105735985D01*
X166656131Y-105735985D01*
X164691674Y-102903691D02*
X165240702Y-102903691D01*
X164966188Y-103178205D02*
X164966188Y-102629177D01*
X165926988Y-102457605D02*
X165583845Y-102457605D01*
X165549531Y-102800748D01*
X165583845Y-102766434D01*
X165652474Y-102732120D01*
X165824045Y-102732120D01*
X165892674Y-102766434D01*
X165926988Y-102800748D01*
X165961302Y-102869377D01*
X165961302Y-103040948D01*
X165926988Y-103109577D01*
X165892674Y-103143891D01*
X165824045Y-103178205D01*
X165652474Y-103178205D01*
X165583845Y-103143891D01*
X165549531Y-103109577D01*
X166167188Y-102457605D02*
X166407388Y-103178205D01*
X166647588Y-102457605D01*
X164628174Y-100185891D02*
X165177202Y-100185891D01*
X164902688Y-100460405D02*
X164902688Y-99911377D01*
X165863488Y-99739805D02*
X165520345Y-99739805D01*
X165486031Y-100082948D01*
X165520345Y-100048634D01*
X165588974Y-100014320D01*
X165760545Y-100014320D01*
X165829174Y-100048634D01*
X165863488Y-100082948D01*
X165897802Y-100151577D01*
X165897802Y-100323148D01*
X165863488Y-100391777D01*
X165829174Y-100426091D01*
X165760545Y-100460405D01*
X165588974Y-100460405D01*
X165520345Y-100426091D01*
X165486031Y-100391777D01*
X166103688Y-99739805D02*
X166343888Y-100460405D01*
X166584088Y-99739805D01*
X172868840Y-115221105D02*
X172525697Y-115221105D01*
X172491382Y-115564248D01*
X172525697Y-115529934D01*
X172594325Y-115495620D01*
X172765897Y-115495620D01*
X172834525Y-115529934D01*
X172868840Y-115564248D01*
X172903154Y-115632877D01*
X172903154Y-115804448D01*
X172868840Y-115873077D01*
X172834525Y-115907391D01*
X172765897Y-115941705D01*
X172594325Y-115941705D01*
X172525697Y-115907391D01*
X172491382Y-115873077D01*
X173109040Y-115221105D02*
X173349240Y-115941705D01*
X173589440Y-115221105D01*
X173658068Y-116010334D02*
X174207097Y-116010334D01*
X174344354Y-115735820D02*
X174687497Y-115735820D01*
X174275725Y-115941705D02*
X174515925Y-115221105D01*
X174756125Y-115941705D01*
X174996325Y-115941705D02*
X174996325Y-115221105D01*
X175167897Y-115221105D01*
X175270840Y-115255420D01*
X175339468Y-115324048D01*
X175373782Y-115392677D01*
X175408097Y-115529934D01*
X175408097Y-115632877D01*
X175373782Y-115770134D01*
X175339468Y-115838762D01*
X175270840Y-115907391D01*
X175167897Y-115941705D01*
X174996325Y-115941705D01*
X176128697Y-115873077D02*
X176094382Y-115907391D01*
X175991440Y-115941705D01*
X175922811Y-115941705D01*
X175819868Y-115907391D01*
X175751240Y-115838762D01*
X175716925Y-115770134D01*
X175682611Y-115632877D01*
X175682611Y-115529934D01*
X175716925Y-115392677D01*
X175751240Y-115324048D01*
X175819868Y-115255420D01*
X175922811Y-115221105D01*
X175991440Y-115221105D01*
X176094382Y-115255420D01*
X176128697Y-115289734D01*
X172925488Y-113234065D02*
X172582345Y-113234065D01*
X172582345Y-112513465D01*
X173165688Y-112856608D02*
X173405888Y-112856608D01*
X173508831Y-113234065D02*
X173165688Y-113234065D01*
X173165688Y-112513465D01*
X173508831Y-112513465D01*
X173817660Y-113234065D02*
X173817660Y-112513465D01*
X173989231Y-112513465D01*
X174092174Y-112547780D01*
X174160802Y-112616408D01*
X174195117Y-112685037D01*
X174229431Y-112822294D01*
X174229431Y-112925237D01*
X174195117Y-113062494D01*
X174160802Y-113131122D01*
X174092174Y-113199751D01*
X173989231Y-113234065D01*
X173817660Y-113234065D01*
X174538260Y-112959551D02*
X175087288Y-112959551D01*
X175807888Y-113234065D02*
X175396117Y-113234065D01*
X175602002Y-113234065D02*
X175602002Y-112513465D01*
X175533374Y-112616408D01*
X175464745Y-112685037D01*
X175396117Y-112719351D01*
X172925488Y-110976005D02*
X172582345Y-110976005D01*
X172582345Y-110255405D01*
X173165688Y-110598548D02*
X173405888Y-110598548D01*
X173508831Y-110976005D02*
X173165688Y-110976005D01*
X173165688Y-110255405D01*
X173508831Y-110255405D01*
X173817660Y-110976005D02*
X173817660Y-110255405D01*
X173989231Y-110255405D01*
X174092174Y-110289720D01*
X174160802Y-110358348D01*
X174195117Y-110426977D01*
X174229431Y-110564234D01*
X174229431Y-110667177D01*
X174195117Y-110804434D01*
X174160802Y-110873062D01*
X174092174Y-110941691D01*
X173989231Y-110976005D01*
X173817660Y-110976005D01*
X174538260Y-110701491D02*
X175087288Y-110701491D01*
X175396117Y-110324034D02*
X175430431Y-110289720D01*
X175499060Y-110255405D01*
X175670631Y-110255405D01*
X175739260Y-110289720D01*
X175773574Y-110324034D01*
X175807888Y-110392662D01*
X175807888Y-110461291D01*
X175773574Y-110564234D01*
X175361802Y-110976005D01*
X175807888Y-110976005D01*
X172892468Y-108342025D02*
X172549325Y-108342025D01*
X172549325Y-107621425D01*
X173132668Y-107964568D02*
X173372868Y-107964568D01*
X173475811Y-108342025D02*
X173132668Y-108342025D01*
X173132668Y-107621425D01*
X173475811Y-107621425D01*
X173784640Y-108342025D02*
X173784640Y-107621425D01*
X173956211Y-107621425D01*
X174059154Y-107655740D01*
X174127782Y-107724368D01*
X174162097Y-107792997D01*
X174196411Y-107930254D01*
X174196411Y-108033197D01*
X174162097Y-108170454D01*
X174127782Y-108239082D01*
X174059154Y-108307711D01*
X173956211Y-108342025D01*
X173784640Y-108342025D01*
X174505240Y-108067511D02*
X175054268Y-108067511D01*
X175328782Y-107621425D02*
X175774868Y-107621425D01*
X175534668Y-107895940D01*
X175637611Y-107895940D01*
X175706240Y-107930254D01*
X175740554Y-107964568D01*
X175774868Y-108033197D01*
X175774868Y-108204768D01*
X175740554Y-108273397D01*
X175706240Y-108307711D01*
X175637611Y-108342025D01*
X175431725Y-108342025D01*
X175363097Y-108307711D01*
X175328782Y-108273397D01*
X172902628Y-105581045D02*
X172559485Y-105581045D01*
X172559485Y-104860445D01*
X173142828Y-105203588D02*
X173383028Y-105203588D01*
X173485971Y-105581045D02*
X173142828Y-105581045D01*
X173142828Y-104860445D01*
X173485971Y-104860445D01*
X173794800Y-105581045D02*
X173794800Y-104860445D01*
X173966371Y-104860445D01*
X174069314Y-104894760D01*
X174137942Y-104963388D01*
X174172257Y-105032017D01*
X174206571Y-105169274D01*
X174206571Y-105272217D01*
X174172257Y-105409474D01*
X174137942Y-105478102D01*
X174069314Y-105546731D01*
X173966371Y-105581045D01*
X173794800Y-105581045D01*
X174515400Y-105306531D02*
X175064428Y-105306531D01*
X175716400Y-105100645D02*
X175716400Y-105581045D01*
X175544828Y-104826131D02*
X175373257Y-105340845D01*
X175819342Y-105340845D01*
X172591980Y-102619211D02*
X173141008Y-102619211D01*
X172866494Y-102893725D02*
X172866494Y-102344697D01*
X173415522Y-102173125D02*
X173861608Y-102173125D01*
X173621408Y-102447640D01*
X173724351Y-102447640D01*
X173792980Y-102481954D01*
X173827294Y-102516268D01*
X173861608Y-102584897D01*
X173861608Y-102756468D01*
X173827294Y-102825097D01*
X173792980Y-102859411D01*
X173724351Y-102893725D01*
X173518465Y-102893725D01*
X173449837Y-102859411D01*
X173415522Y-102825097D01*
X174170437Y-102825097D02*
X174204751Y-102859411D01*
X174170437Y-102893725D01*
X174136122Y-102859411D01*
X174170437Y-102825097D01*
X174170437Y-102893725D01*
X174444951Y-102173125D02*
X174891037Y-102173125D01*
X174650837Y-102447640D01*
X174753780Y-102447640D01*
X174822408Y-102481954D01*
X174856722Y-102516268D01*
X174891037Y-102584897D01*
X174891037Y-102756468D01*
X174856722Y-102825097D01*
X174822408Y-102859411D01*
X174753780Y-102893725D01*
X174547894Y-102893725D01*
X174479265Y-102859411D01*
X174444951Y-102825097D01*
X175096922Y-102173125D02*
X175337122Y-102893725D01*
X175577322Y-102173125D01*
X172566580Y-100130011D02*
X173115608Y-100130011D01*
X172841094Y-100404525D02*
X172841094Y-99855497D01*
X173390122Y-99683925D02*
X173836208Y-99683925D01*
X173596008Y-99958440D01*
X173698951Y-99958440D01*
X173767580Y-99992754D01*
X173801894Y-100027068D01*
X173836208Y-100095697D01*
X173836208Y-100267268D01*
X173801894Y-100335897D01*
X173767580Y-100370211D01*
X173698951Y-100404525D01*
X173493065Y-100404525D01*
X173424437Y-100370211D01*
X173390122Y-100335897D01*
X174145037Y-100335897D02*
X174179351Y-100370211D01*
X174145037Y-100404525D01*
X174110722Y-100370211D01*
X174145037Y-100335897D01*
X174145037Y-100404525D01*
X174419551Y-99683925D02*
X174865637Y-99683925D01*
X174625437Y-99958440D01*
X174728380Y-99958440D01*
X174797008Y-99992754D01*
X174831322Y-100027068D01*
X174865637Y-100095697D01*
X174865637Y-100267268D01*
X174831322Y-100335897D01*
X174797008Y-100370211D01*
X174728380Y-100404525D01*
X174522494Y-100404525D01*
X174453865Y-100370211D01*
X174419551Y-100335897D01*
X175071522Y-99683925D02*
X175311722Y-100404525D01*
X175551922Y-99683925D01*
D11*
%TO.C,PMOS1*%
X138661140Y-86652100D02*
X138661140Y-85301739D01*
X137452100Y-80606900D02*
X137253980Y-80606900D01*
X134713980Y-86652100D02*
X134912100Y-86652100D01*
X137253980Y-86652100D02*
X137452100Y-86652100D01*
X135983980Y-86652100D02*
X136182100Y-86652100D01*
X133504940Y-80606900D02*
X133504940Y-81512094D01*
X138661140Y-83909154D02*
X138661140Y-82403635D01*
X138661140Y-81512094D02*
X138661140Y-80606900D01*
X136182100Y-80606900D02*
X135983980Y-80606900D01*
X134912100Y-80606900D02*
X134713980Y-80606900D01*
X133504940Y-82403635D02*
X133504940Y-83909154D01*
X133504940Y-85301739D02*
X133504940Y-86652100D01*
D12*
G36*
X133987540Y-79743300D02*
G01*
X134368540Y-79743300D01*
X134368540Y-79997300D01*
X133987540Y-79997300D01*
X133987540Y-79743300D01*
G37*
X133987540Y-79743300D02*
X134368540Y-79743300D01*
X134368540Y-79997300D01*
X133987540Y-79997300D01*
X133987540Y-79743300D01*
D11*
%TO.C,SW1*%
X120266720Y-92965320D02*
X118766720Y-92965320D01*
X116266720Y-94215320D02*
X116266720Y-98715320D01*
X118766720Y-99965320D02*
X120266720Y-99965320D01*
X122766720Y-98715320D02*
X122766720Y-94215320D01*
D12*
%TO.C,L2*%
X126736100Y-117604980D02*
X126736100Y-111604980D01*
X120736100Y-117604980D02*
X120736100Y-111604980D01*
%TO.C,L1*%
X141584420Y-117704040D02*
X141584420Y-111704040D01*
X147584420Y-117704040D02*
X147584420Y-111704040D01*
D11*
%TO.C,Z1*%
X137335900Y-88732920D02*
X134875900Y-88732920D01*
X137335900Y-87532920D02*
X134875900Y-87532920D01*
X134875900Y-87532920D02*
X134875900Y-88732920D01*
%TO.C,GND*%
X156782920Y-82843220D02*
X156782920Y-80443220D01*
X159182920Y-82843220D02*
X156782920Y-82843220D01*
X159182920Y-80443220D02*
X159182920Y-82843220D01*
X156782920Y-80443220D02*
X159182920Y-80443220D01*
%TO.C,+ve*%
X153183740Y-82802580D02*
X153183740Y-80402580D01*
X155583740Y-82802580D02*
X153183740Y-82802580D01*
X155583740Y-80402580D02*
X155583740Y-82802580D01*
X153183740Y-80402580D02*
X155583740Y-80402580D01*
%TO.C,R21*%
X131268736Y-100635740D02*
X131722864Y-100635740D01*
X131268736Y-99165740D02*
X131722864Y-99165740D01*
%TO.C,R20*%
X151668116Y-100650980D02*
X152122244Y-100650980D01*
X151668116Y-99180980D02*
X152122244Y-99180980D01*
%TO.C,Q1*%
X147330280Y-84548440D02*
X147330280Y-86008440D01*
X144170280Y-84548440D02*
X144170280Y-86708440D01*
X144170280Y-84548440D02*
X145100280Y-84548440D01*
X147330280Y-84548440D02*
X146400280Y-84548440D01*
%TO.C,R14*%
X169646464Y-88408180D02*
X169192336Y-88408180D01*
X169646464Y-86938180D02*
X169192336Y-86938180D01*
%TO.C,D4*%
X171951400Y-88645880D02*
X174636400Y-88645880D01*
X174636400Y-88645880D02*
X174636400Y-86725880D01*
X174636400Y-86725880D02*
X171951400Y-86725880D01*
%TO.C,R7*%
X169631524Y-86317760D02*
X169177396Y-86317760D01*
X169631524Y-84847760D02*
X169177396Y-84847760D01*
%TO.C,R16*%
X169626844Y-84242380D02*
X169172716Y-84242380D01*
X169626844Y-82772380D02*
X169172716Y-82772380D01*
%TO.C,R15*%
X169662004Y-90508760D02*
X169207876Y-90508760D01*
X169662004Y-89038760D02*
X169207876Y-89038760D01*
%TO.C,D2*%
X171993780Y-84467380D02*
X174678780Y-84467380D01*
X174678780Y-84467380D02*
X174678780Y-82547380D01*
X174678780Y-82547380D02*
X171993780Y-82547380D01*
%TO.C,D5*%
X171961940Y-90733760D02*
X174646940Y-90733760D01*
X174646940Y-90733760D02*
X174646940Y-88813760D01*
X174646940Y-88813760D02*
X171961940Y-88813760D01*
%TO.C,D3*%
X171948460Y-86545260D02*
X174633460Y-86545260D01*
X174633460Y-86545260D02*
X174633460Y-84625260D01*
X174633460Y-84625260D02*
X171948460Y-84625260D01*
%TO.C,R9*%
X136790140Y-95624896D02*
X136790140Y-96079024D01*
X135320140Y-95624896D02*
X135320140Y-96079024D01*
%TO.C,R8*%
X133161140Y-96079024D02*
X133161140Y-95624896D01*
X134631140Y-96079024D02*
X134631140Y-95624896D01*
%TO.C,C10*%
X163043540Y-89144168D02*
X163043540Y-89666672D01*
X161573540Y-89144168D02*
X161573540Y-89666672D01*
%TO.C,R17*%
X160805800Y-85020416D02*
X160805800Y-85474544D01*
X159335800Y-85020416D02*
X159335800Y-85474544D01*
%TO.C,R18*%
X160798180Y-89152356D02*
X160798180Y-89606484D01*
X159328180Y-89152356D02*
X159328180Y-89606484D01*
%TO.C,Q2*%
X144285560Y-93201100D02*
X147885560Y-93201100D01*
X147924038Y-93189578D02*
G75*
G03*
X146085560Y-88751100I-1838478J1838478D01*
G01*
X144247082Y-93189578D02*
G75*
G02*
X146085560Y-88751100I1838478J1838478D01*
G01*
%TO.C,R13*%
X137705160Y-96093644D02*
X137705160Y-95639516D01*
X139175160Y-96093644D02*
X139175160Y-95639516D01*
%TO.C,R19*%
X140260400Y-96119044D02*
X140260400Y-95664916D01*
X141730400Y-96119044D02*
X141730400Y-95664916D01*
%TO.C,D1*%
X143840640Y-93957900D02*
X143840640Y-95957900D01*
X143840640Y-95957900D02*
X147740640Y-95957900D01*
X143840640Y-93957900D02*
X147740640Y-93957900D01*
%TO.C,R11*%
X142015540Y-85548204D02*
X142015540Y-85094076D01*
X143485540Y-85548204D02*
X143485540Y-85094076D01*
%TO.C,R10*%
X146327224Y-98065260D02*
X145873096Y-98065260D01*
X146327224Y-96595260D02*
X145873096Y-96595260D01*
%TO.C,R4*%
X152687960Y-89127596D02*
X152687960Y-89581724D01*
X151217960Y-89127596D02*
X151217960Y-89581724D01*
%TO.C,R3*%
X152690500Y-85020416D02*
X152690500Y-85474544D01*
X151220500Y-85020416D02*
X151220500Y-85474544D01*
%TO.C,J2*%
X167051560Y-116826320D02*
X172251560Y-116826320D01*
X167051560Y-101526320D02*
X167051560Y-116826320D01*
X172251560Y-98926320D02*
X172251560Y-116826320D01*
X167051560Y-101526320D02*
X169651560Y-101526320D01*
X169651560Y-101526320D02*
X169651560Y-98926320D01*
X169651560Y-98926320D02*
X172251560Y-98926320D01*
X167051560Y-100256320D02*
X167051560Y-98926320D01*
X167051560Y-98926320D02*
X168381560Y-98926320D01*
%TO.C,C1*%
X159921880Y-107338228D02*
X159921880Y-107860732D01*
X158451880Y-107338228D02*
X158451880Y-107860732D01*
%TO.C,C2*%
X157543940Y-107312988D02*
X157543940Y-107835492D01*
X156073940Y-107312988D02*
X156073940Y-107835492D01*
%TO.C,C3*%
X153896192Y-110976240D02*
X153373688Y-110976240D01*
X153896192Y-109506240D02*
X153373688Y-109506240D01*
%TO.C,C4*%
X146235688Y-102797240D02*
X146758192Y-102797240D01*
X146235688Y-101327240D02*
X146758192Y-101327240D01*
%TO.C,C5*%
X146022228Y-106627920D02*
X146544732Y-106627920D01*
X146022228Y-108097920D02*
X146544732Y-108097920D01*
%TO.C,C6*%
X144212480Y-106123668D02*
X144212480Y-106646172D01*
X142742480Y-106123668D02*
X142742480Y-106646172D01*
%TO.C,C7*%
X137006500Y-107205748D02*
X137006500Y-107728252D01*
X135536500Y-107205748D02*
X135536500Y-107728252D01*
%TO.C,C8*%
X139355500Y-107243748D02*
X139355500Y-107766252D01*
X137885500Y-107243748D02*
X137885500Y-107766252D01*
%TO.C,C52*%
X123754248Y-106516000D02*
X124276752Y-106516000D01*
X123754248Y-107986000D02*
X124276752Y-107986000D01*
%TO.C,C32*%
X133331752Y-110996000D02*
X132809248Y-110996000D01*
X133331752Y-109526000D02*
X132809248Y-109526000D01*
%TO.C,C62*%
X121943500Y-105923748D02*
X121943500Y-106446252D01*
X120473500Y-105923748D02*
X120473500Y-106446252D01*
%TO.C,C42*%
X125811248Y-99265000D02*
X126333752Y-99265000D01*
X125811248Y-100735000D02*
X126333752Y-100735000D01*
%TO.C,C11*%
X130447248Y-117121000D02*
X130969752Y-117121000D01*
X130447248Y-118591000D02*
X130969752Y-118591000D01*
%TO.C,C12*%
X130472248Y-114962000D02*
X130994752Y-114962000D01*
X130472248Y-116432000D02*
X130994752Y-116432000D01*
%TO.C,C13*%
X130472248Y-112841000D02*
X130994752Y-112841000D01*
X130472248Y-114311000D02*
X130994752Y-114311000D01*
%TO.C,C21*%
X151112688Y-117227240D02*
X151635192Y-117227240D01*
X151112688Y-118697240D02*
X151635192Y-118697240D01*
%TO.C,C22*%
X151112688Y-115081240D02*
X151635192Y-115081240D01*
X151112688Y-116551240D02*
X151635192Y-116551240D01*
%TO.C,C23*%
X151112688Y-113011240D02*
X151635192Y-113011240D01*
X151112688Y-114481240D02*
X151635192Y-114481240D01*
%TO.C,Css1*%
X153883192Y-102784240D02*
X153360688Y-102784240D01*
X153883192Y-101314240D02*
X153360688Y-101314240D01*
%TO.C,Css2*%
X133344752Y-102780000D02*
X132822248Y-102780000D01*
X133344752Y-101310000D02*
X132822248Y-101310000D01*
%TO.C,J1*%
X123196000Y-87787500D02*
X114196000Y-87787500D01*
X114196000Y-87787500D02*
X114196000Y-78587500D01*
X114196000Y-78587500D02*
X128796000Y-78587500D01*
X128796000Y-78587500D02*
X128796000Y-81387500D01*
X128796000Y-84987500D02*
X128796000Y-87787500D01*
X128796000Y-87787500D02*
X126796000Y-87787500D01*
X127296000Y-78347500D02*
X129036000Y-78347500D01*
X129036000Y-78347500D02*
X129036000Y-80087500D01*
%TO.C,R1*%
X146307876Y-99206240D02*
X146762004Y-99206240D01*
X146307876Y-100676240D02*
X146762004Y-100676240D01*
%TO.C,R2*%
X149863876Y-101340240D02*
X150318004Y-101340240D01*
X149863876Y-102810240D02*
X150318004Y-102810240D01*
%TO.C,R52*%
X124255564Y-105942000D02*
X123801436Y-105942000D01*
X124255564Y-104472000D02*
X123801436Y-104472000D01*
%TO.C,R12*%
X125871436Y-101360000D02*
X126325564Y-101360000D01*
X125871436Y-102830000D02*
X126325564Y-102830000D01*
%TO.C,R5*%
X146523544Y-106078920D02*
X146069416Y-106078920D01*
X146523544Y-104608920D02*
X146069416Y-104608920D01*
%TO.C,R6*%
X140800760Y-86978756D02*
X140800760Y-87432884D01*
X139330760Y-86978756D02*
X139330760Y-87432884D01*
%TO.C,R22*%
X129363436Y-101335000D02*
X129817564Y-101335000D01*
X129363436Y-102805000D02*
X129817564Y-102805000D01*
%TO.C,U1*%
X150311356Y-103414240D02*
X150071940Y-103414240D01*
X153732524Y-103414240D02*
X153971940Y-103414240D01*
X150311356Y-108534240D02*
X150071940Y-108534240D01*
X153732524Y-108534240D02*
X155471940Y-108534240D01*
%TO.C,U2*%
X129721916Y-103333000D02*
X129482500Y-103333000D01*
X133143084Y-103333000D02*
X133382500Y-103333000D01*
X129721916Y-108453000D02*
X129482500Y-108453000D01*
X133143084Y-108453000D02*
X134882500Y-108453000D01*
%TO.C,C9*%
X154874900Y-89151828D02*
X154874900Y-89674332D01*
X153404900Y-89151828D02*
X153404900Y-89674332D01*
%TO.C,PMOS1*%
D10*
X132669160Y-85705343D02*
X131669160Y-85705343D01*
X131669160Y-85324391D01*
X131716780Y-85229153D01*
X131764399Y-85181534D01*
X131859637Y-85133915D01*
X132002494Y-85133915D01*
X132097732Y-85181534D01*
X132145351Y-85229153D01*
X132192970Y-85324391D01*
X132192970Y-85705343D01*
X132669160Y-84705343D02*
X131669160Y-84705343D01*
X132383446Y-84372010D01*
X131669160Y-84038677D01*
X132669160Y-84038677D01*
X131669160Y-83372010D02*
X131669160Y-83181534D01*
X131716780Y-83086296D01*
X131812018Y-82991058D01*
X132002494Y-82943439D01*
X132335827Y-82943439D01*
X132526303Y-82991058D01*
X132621541Y-83086296D01*
X132669160Y-83181534D01*
X132669160Y-83372010D01*
X132621541Y-83467248D01*
X132526303Y-83562486D01*
X132335827Y-83610105D01*
X132002494Y-83610105D01*
X131812018Y-83562486D01*
X131716780Y-83467248D01*
X131669160Y-83372010D01*
X132621541Y-82562486D02*
X132669160Y-82419629D01*
X132669160Y-82181534D01*
X132621541Y-82086296D01*
X132573922Y-82038677D01*
X132478684Y-81991058D01*
X132383446Y-81991058D01*
X132288208Y-82038677D01*
X132240589Y-82086296D01*
X132192970Y-82181534D01*
X132145351Y-82372010D01*
X132097732Y-82467248D01*
X132050113Y-82514867D01*
X131954875Y-82562486D01*
X131859637Y-82562486D01*
X131764399Y-82514867D01*
X131716780Y-82467248D01*
X131669160Y-82372010D01*
X131669160Y-82133915D01*
X131716780Y-81991058D01*
X132669160Y-81038677D02*
X132669160Y-81610105D01*
X132669160Y-81324391D02*
X131669160Y-81324391D01*
X131812018Y-81419629D01*
X131907256Y-81514867D01*
X131954875Y-81610105D01*
%TO.C,SW1*%
X115671481Y-97798653D02*
X115719100Y-97655796D01*
X115719100Y-97417700D01*
X115671481Y-97322462D01*
X115623862Y-97274843D01*
X115528624Y-97227224D01*
X115433386Y-97227224D01*
X115338148Y-97274843D01*
X115290529Y-97322462D01*
X115242910Y-97417700D01*
X115195291Y-97608177D01*
X115147672Y-97703415D01*
X115100053Y-97751034D01*
X115004815Y-97798653D01*
X114909577Y-97798653D01*
X114814339Y-97751034D01*
X114766720Y-97703415D01*
X114719100Y-97608177D01*
X114719100Y-97370081D01*
X114766720Y-97227224D01*
X114719100Y-96893891D02*
X115719100Y-96655796D01*
X115004815Y-96465320D01*
X115719100Y-96274843D01*
X114719100Y-96036748D01*
X115719100Y-95131986D02*
X115719100Y-95703415D01*
X115719100Y-95417700D02*
X114719100Y-95417700D01*
X114861958Y-95512939D01*
X114957196Y-95608177D01*
X115004815Y-95703415D01*
%TO.C,L2*%
D13*
X128637453Y-111696983D02*
X128032691Y-111696983D01*
X128032691Y-110426983D01*
X129000310Y-110547936D02*
X129060786Y-110487460D01*
X129181739Y-110426983D01*
X129484120Y-110426983D01*
X129605072Y-110487460D01*
X129665548Y-110547936D01*
X129726024Y-110668888D01*
X129726024Y-110789840D01*
X129665548Y-110971269D01*
X128939834Y-111696983D01*
X129726024Y-111696983D01*
%TO.C,L1*%
X144372753Y-115278563D02*
X143767991Y-115278563D01*
X143767991Y-114008563D01*
X145461324Y-115278563D02*
X144735610Y-115278563D01*
X145098467Y-115278563D02*
X145098467Y-114008563D01*
X144977515Y-114189992D01*
X144856562Y-114310944D01*
X144735610Y-114371420D01*
%TO.C,Z1*%
D10*
X135479377Y-89163245D02*
X135959777Y-89163245D01*
X135479377Y-89883845D01*
X135959777Y-89883845D01*
X136611748Y-89883845D02*
X136199977Y-89883845D01*
X136405862Y-89883845D02*
X136405862Y-89163245D01*
X136337234Y-89266188D01*
X136268605Y-89334817D01*
X136199977Y-89369131D01*
%TO.C,GND*%
X157221015Y-79022320D02*
X157125777Y-78974700D01*
X156982920Y-78974700D01*
X156840062Y-79022320D01*
X156744824Y-79117558D01*
X156697205Y-79212796D01*
X156649586Y-79403272D01*
X156649586Y-79546129D01*
X156697205Y-79736605D01*
X156744824Y-79831843D01*
X156840062Y-79927081D01*
X156982920Y-79974700D01*
X157078158Y-79974700D01*
X157221015Y-79927081D01*
X157268634Y-79879462D01*
X157268634Y-79546129D01*
X157078158Y-79546129D01*
X157697205Y-79974700D02*
X157697205Y-78974700D01*
X158268634Y-79974700D01*
X158268634Y-78974700D01*
X158744824Y-79974700D02*
X158744824Y-78974700D01*
X158982920Y-78974700D01*
X159125777Y-79022320D01*
X159221015Y-79117558D01*
X159268634Y-79212796D01*
X159316253Y-79403272D01*
X159316253Y-79546129D01*
X159268634Y-79736605D01*
X159221015Y-79831843D01*
X159125777Y-79927081D01*
X158982920Y-79974700D01*
X158744824Y-79974700D01*
%TO.C,+ve*%
X153193263Y-79676008D02*
X153955168Y-79676008D01*
X153574216Y-80056960D02*
X153574216Y-79295056D01*
X154336120Y-79390294D02*
X154574216Y-80056960D01*
X154812311Y-79390294D01*
X155574216Y-80009341D02*
X155478978Y-80056960D01*
X155288501Y-80056960D01*
X155193263Y-80009341D01*
X155145644Y-79914103D01*
X155145644Y-79533151D01*
X155193263Y-79437913D01*
X155288501Y-79390294D01*
X155478978Y-79390294D01*
X155574216Y-79437913D01*
X155621835Y-79533151D01*
X155621835Y-79628389D01*
X155145644Y-79723627D01*
%TO.C,R21*%
X131032557Y-98576725D02*
X130792357Y-98233582D01*
X130620785Y-98576725D02*
X130620785Y-97856125D01*
X130895300Y-97856125D01*
X130963928Y-97890440D01*
X130998242Y-97924754D01*
X131032557Y-97993382D01*
X131032557Y-98096325D01*
X130998242Y-98164954D01*
X130963928Y-98199268D01*
X130895300Y-98233582D01*
X130620785Y-98233582D01*
X131307071Y-97924754D02*
X131341385Y-97890440D01*
X131410014Y-97856125D01*
X131581585Y-97856125D01*
X131650214Y-97890440D01*
X131684528Y-97924754D01*
X131718842Y-97993382D01*
X131718842Y-98062011D01*
X131684528Y-98164954D01*
X131272757Y-98576725D01*
X131718842Y-98576725D01*
X132405128Y-98576725D02*
X131993357Y-98576725D01*
X132199242Y-98576725D02*
X132199242Y-97856125D01*
X132130614Y-97959068D01*
X132061985Y-98027697D01*
X131993357Y-98062011D01*
%TO.C,R20*%
X151431937Y-98591965D02*
X151191737Y-98248822D01*
X151020165Y-98591965D02*
X151020165Y-97871365D01*
X151294680Y-97871365D01*
X151363308Y-97905680D01*
X151397622Y-97939994D01*
X151431937Y-98008622D01*
X151431937Y-98111565D01*
X151397622Y-98180194D01*
X151363308Y-98214508D01*
X151294680Y-98248822D01*
X151020165Y-98248822D01*
X151706451Y-97939994D02*
X151740765Y-97905680D01*
X151809394Y-97871365D01*
X151980965Y-97871365D01*
X152049594Y-97905680D01*
X152083908Y-97939994D01*
X152118222Y-98008622D01*
X152118222Y-98077251D01*
X152083908Y-98180194D01*
X151672137Y-98591965D01*
X152118222Y-98591965D01*
X152564308Y-97871365D02*
X152632937Y-97871365D01*
X152701565Y-97905680D01*
X152735880Y-97939994D01*
X152770194Y-98008622D01*
X152804508Y-98145880D01*
X152804508Y-98317451D01*
X152770194Y-98454708D01*
X152735880Y-98523337D01*
X152701565Y-98557651D01*
X152632937Y-98591965D01*
X152564308Y-98591965D01*
X152495680Y-98557651D01*
X152461365Y-98523337D01*
X152427051Y-98454708D01*
X152392737Y-98317451D01*
X152392737Y-98145880D01*
X152427051Y-98008622D01*
X152461365Y-97939994D01*
X152495680Y-97905680D01*
X152564308Y-97871365D01*
%TO.C,Q1*%
X145682981Y-83481159D02*
X145587743Y-83433540D01*
X145492505Y-83338301D01*
X145349648Y-83195444D01*
X145254410Y-83147825D01*
X145159172Y-83147825D01*
X145206791Y-83385920D02*
X145111553Y-83338301D01*
X145016315Y-83243063D01*
X144968696Y-83052587D01*
X144968696Y-82719254D01*
X145016315Y-82528778D01*
X145111553Y-82433540D01*
X145206791Y-82385920D01*
X145397267Y-82385920D01*
X145492505Y-82433540D01*
X145587743Y-82528778D01*
X145635362Y-82719254D01*
X145635362Y-83052587D01*
X145587743Y-83243063D01*
X145492505Y-83338301D01*
X145397267Y-83385920D01*
X145206791Y-83385920D01*
X146587743Y-83385920D02*
X146016315Y-83385920D01*
X146302029Y-83385920D02*
X146302029Y-82385920D01*
X146206791Y-82528778D01*
X146111553Y-82624016D01*
X146016315Y-82671635D01*
%TO.C,R14*%
X166140437Y-88009325D02*
X165900237Y-87666182D01*
X165728665Y-88009325D02*
X165728665Y-87288725D01*
X166003180Y-87288725D01*
X166071808Y-87323040D01*
X166106122Y-87357354D01*
X166140437Y-87425982D01*
X166140437Y-87528925D01*
X166106122Y-87597554D01*
X166071808Y-87631868D01*
X166003180Y-87666182D01*
X165728665Y-87666182D01*
X166826722Y-88009325D02*
X166414951Y-88009325D01*
X166620837Y-88009325D02*
X166620837Y-87288725D01*
X166552208Y-87391668D01*
X166483580Y-87460297D01*
X166414951Y-87494611D01*
X167444380Y-87528925D02*
X167444380Y-88009325D01*
X167272808Y-87254411D02*
X167101237Y-87769125D01*
X167547322Y-87769125D01*
%TO.C,D4*%
X174931328Y-87983925D02*
X174931328Y-87263325D01*
X175102900Y-87263325D01*
X175205842Y-87297640D01*
X175274471Y-87366268D01*
X175308785Y-87434897D01*
X175343100Y-87572154D01*
X175343100Y-87675097D01*
X175308785Y-87812354D01*
X175274471Y-87880982D01*
X175205842Y-87949611D01*
X175102900Y-87983925D01*
X174931328Y-87983925D01*
X175960757Y-87503525D02*
X175960757Y-87983925D01*
X175789185Y-87229011D02*
X175617614Y-87743725D01*
X176063700Y-87743725D01*
%TO.C,R7*%
X166750280Y-85972245D02*
X166510080Y-85629102D01*
X166338508Y-85972245D02*
X166338508Y-85251645D01*
X166613022Y-85251645D01*
X166681651Y-85285960D01*
X166715965Y-85320274D01*
X166750280Y-85388902D01*
X166750280Y-85491845D01*
X166715965Y-85560474D01*
X166681651Y-85594788D01*
X166613022Y-85629102D01*
X166338508Y-85629102D01*
X166990480Y-85251645D02*
X167470880Y-85251645D01*
X167162051Y-85972245D01*
%TO.C,R16*%
X166181077Y-83853885D02*
X165940877Y-83510742D01*
X165769305Y-83853885D02*
X165769305Y-83133285D01*
X166043820Y-83133285D01*
X166112448Y-83167600D01*
X166146762Y-83201914D01*
X166181077Y-83270542D01*
X166181077Y-83373485D01*
X166146762Y-83442114D01*
X166112448Y-83476428D01*
X166043820Y-83510742D01*
X165769305Y-83510742D01*
X166867362Y-83853885D02*
X166455591Y-83853885D01*
X166661477Y-83853885D02*
X166661477Y-83133285D01*
X166592848Y-83236228D01*
X166524220Y-83304857D01*
X166455591Y-83339171D01*
X167485020Y-83133285D02*
X167347762Y-83133285D01*
X167279134Y-83167600D01*
X167244820Y-83201914D01*
X167176191Y-83304857D01*
X167141877Y-83442114D01*
X167141877Y-83716628D01*
X167176191Y-83785257D01*
X167210505Y-83819571D01*
X167279134Y-83853885D01*
X167416391Y-83853885D01*
X167485020Y-83819571D01*
X167519334Y-83785257D01*
X167553648Y-83716628D01*
X167553648Y-83545057D01*
X167519334Y-83476428D01*
X167485020Y-83442114D01*
X167416391Y-83407800D01*
X167279134Y-83407800D01*
X167210505Y-83442114D01*
X167176191Y-83476428D01*
X167141877Y-83545057D01*
%TO.C,R15*%
X166168377Y-90193725D02*
X165928177Y-89850582D01*
X165756605Y-90193725D02*
X165756605Y-89473125D01*
X166031120Y-89473125D01*
X166099748Y-89507440D01*
X166134062Y-89541754D01*
X166168377Y-89610382D01*
X166168377Y-89713325D01*
X166134062Y-89781954D01*
X166099748Y-89816268D01*
X166031120Y-89850582D01*
X165756605Y-89850582D01*
X166854662Y-90193725D02*
X166442891Y-90193725D01*
X166648777Y-90193725D02*
X166648777Y-89473125D01*
X166580148Y-89576068D01*
X166511520Y-89644697D01*
X166442891Y-89679011D01*
X167506634Y-89473125D02*
X167163491Y-89473125D01*
X167129177Y-89816268D01*
X167163491Y-89781954D01*
X167232120Y-89747640D01*
X167403691Y-89747640D01*
X167472320Y-89781954D01*
X167506634Y-89816268D01*
X167540948Y-89884897D01*
X167540948Y-90056468D01*
X167506634Y-90125097D01*
X167472320Y-90159411D01*
X167403691Y-90193725D01*
X167232120Y-90193725D01*
X167163491Y-90159411D01*
X167129177Y-90125097D01*
%TO.C,D2*%
X175065408Y-83861305D02*
X175065408Y-83140705D01*
X175236980Y-83140705D01*
X175339922Y-83175020D01*
X175408551Y-83243648D01*
X175442865Y-83312277D01*
X175477180Y-83449534D01*
X175477180Y-83552477D01*
X175442865Y-83689734D01*
X175408551Y-83758362D01*
X175339922Y-83826991D01*
X175236980Y-83861305D01*
X175065408Y-83861305D01*
X175751694Y-83209334D02*
X175786008Y-83175020D01*
X175854637Y-83140705D01*
X176026208Y-83140705D01*
X176094837Y-83175020D01*
X176129151Y-83209334D01*
X176163465Y-83277962D01*
X176163465Y-83346591D01*
X176129151Y-83449534D01*
X175717380Y-83861305D01*
X176163465Y-83861305D01*
%TO.C,D5*%
X174933868Y-90120065D02*
X174933868Y-89399465D01*
X175105440Y-89399465D01*
X175208382Y-89433780D01*
X175277011Y-89502408D01*
X175311325Y-89571037D01*
X175345640Y-89708294D01*
X175345640Y-89811237D01*
X175311325Y-89948494D01*
X175277011Y-90017122D01*
X175208382Y-90085751D01*
X175105440Y-90120065D01*
X174933868Y-90120065D01*
X175997611Y-89399465D02*
X175654468Y-89399465D01*
X175620154Y-89742608D01*
X175654468Y-89708294D01*
X175723097Y-89673980D01*
X175894668Y-89673980D01*
X175963297Y-89708294D01*
X175997611Y-89742608D01*
X176031925Y-89811237D01*
X176031925Y-89982808D01*
X175997611Y-90051437D01*
X175963297Y-90085751D01*
X175894668Y-90120065D01*
X175723097Y-90120065D01*
X175654468Y-90085751D01*
X175620154Y-90051437D01*
%TO.C,D3*%
X174903388Y-85799525D02*
X174903388Y-85078925D01*
X175074960Y-85078925D01*
X175177902Y-85113240D01*
X175246531Y-85181868D01*
X175280845Y-85250497D01*
X175315160Y-85387754D01*
X175315160Y-85490697D01*
X175280845Y-85627954D01*
X175246531Y-85696582D01*
X175177902Y-85765211D01*
X175074960Y-85799525D01*
X174903388Y-85799525D01*
X175555360Y-85078925D02*
X176001445Y-85078925D01*
X175761245Y-85353440D01*
X175864188Y-85353440D01*
X175932817Y-85387754D01*
X175967131Y-85422068D01*
X176001445Y-85490697D01*
X176001445Y-85662268D01*
X175967131Y-85730897D01*
X175932817Y-85765211D01*
X175864188Y-85799525D01*
X175658302Y-85799525D01*
X175589674Y-85765211D01*
X175555360Y-85730897D01*
%TO.C,R9*%
X135884240Y-93980845D02*
X135644040Y-93637702D01*
X135472468Y-93980845D02*
X135472468Y-93260245D01*
X135746982Y-93260245D01*
X135815611Y-93294560D01*
X135849925Y-93328874D01*
X135884240Y-93397502D01*
X135884240Y-93500445D01*
X135849925Y-93569074D01*
X135815611Y-93603388D01*
X135746982Y-93637702D01*
X135472468Y-93637702D01*
X136227382Y-93980845D02*
X136364640Y-93980845D01*
X136433268Y-93946531D01*
X136467582Y-93912217D01*
X136536211Y-93809274D01*
X136570525Y-93672017D01*
X136570525Y-93397502D01*
X136536211Y-93328874D01*
X136501897Y-93294560D01*
X136433268Y-93260245D01*
X136296011Y-93260245D01*
X136227382Y-93294560D01*
X136193068Y-93328874D01*
X136158754Y-93397502D01*
X136158754Y-93569074D01*
X136193068Y-93637702D01*
X136227382Y-93672017D01*
X136296011Y-93706331D01*
X136433268Y-93706331D01*
X136501897Y-93672017D01*
X136536211Y-93637702D01*
X136570525Y-93569074D01*
%TO.C,R8*%
X133725240Y-93942745D02*
X133485040Y-93599602D01*
X133313468Y-93942745D02*
X133313468Y-93222145D01*
X133587982Y-93222145D01*
X133656611Y-93256460D01*
X133690925Y-93290774D01*
X133725240Y-93359402D01*
X133725240Y-93462345D01*
X133690925Y-93530974D01*
X133656611Y-93565288D01*
X133587982Y-93599602D01*
X133313468Y-93599602D01*
X134137011Y-93530974D02*
X134068382Y-93496660D01*
X134034068Y-93462345D01*
X133999754Y-93393717D01*
X133999754Y-93359402D01*
X134034068Y-93290774D01*
X134068382Y-93256460D01*
X134137011Y-93222145D01*
X134274268Y-93222145D01*
X134342897Y-93256460D01*
X134377211Y-93290774D01*
X134411525Y-93359402D01*
X134411525Y-93393717D01*
X134377211Y-93462345D01*
X134342897Y-93496660D01*
X134274268Y-93530974D01*
X134137011Y-93530974D01*
X134068382Y-93565288D01*
X134034068Y-93599602D01*
X133999754Y-93668231D01*
X133999754Y-93805488D01*
X134034068Y-93874117D01*
X134068382Y-93908431D01*
X134137011Y-93942745D01*
X134274268Y-93942745D01*
X134342897Y-93908431D01*
X134377211Y-93874117D01*
X134411525Y-93805488D01*
X134411525Y-93668231D01*
X134377211Y-93599602D01*
X134342897Y-93565288D01*
X134274268Y-93530974D01*
%TO.C,C10*%
X161835137Y-92012317D02*
X161800822Y-92046631D01*
X161697880Y-92080945D01*
X161629251Y-92080945D01*
X161526308Y-92046631D01*
X161457680Y-91978002D01*
X161423365Y-91909374D01*
X161389051Y-91772117D01*
X161389051Y-91669174D01*
X161423365Y-91531917D01*
X161457680Y-91463288D01*
X161526308Y-91394660D01*
X161629251Y-91360345D01*
X161697880Y-91360345D01*
X161800822Y-91394660D01*
X161835137Y-91428974D01*
X162521422Y-92080945D02*
X162109651Y-92080945D01*
X162315537Y-92080945D02*
X162315537Y-91360345D01*
X162246908Y-91463288D01*
X162178280Y-91531917D01*
X162109651Y-91566231D01*
X162967508Y-91360345D02*
X163036137Y-91360345D01*
X163104765Y-91394660D01*
X163139080Y-91428974D01*
X163173394Y-91497602D01*
X163207708Y-91634860D01*
X163207708Y-91806431D01*
X163173394Y-91943688D01*
X163139080Y-92012317D01*
X163104765Y-92046631D01*
X163036137Y-92080945D01*
X162967508Y-92080945D01*
X162898880Y-92046631D01*
X162864565Y-92012317D01*
X162830251Y-91943688D01*
X162795937Y-91806431D01*
X162795937Y-91634860D01*
X162830251Y-91497602D01*
X162864565Y-91428974D01*
X162898880Y-91394660D01*
X162967508Y-91360345D01*
%TO.C,R17*%
X159836157Y-83305245D02*
X159595957Y-82962102D01*
X159424385Y-83305245D02*
X159424385Y-82584645D01*
X159698900Y-82584645D01*
X159767528Y-82618960D01*
X159801842Y-82653274D01*
X159836157Y-82721902D01*
X159836157Y-82824845D01*
X159801842Y-82893474D01*
X159767528Y-82927788D01*
X159698900Y-82962102D01*
X159424385Y-82962102D01*
X160522442Y-83305245D02*
X160110671Y-83305245D01*
X160316557Y-83305245D02*
X160316557Y-82584645D01*
X160247928Y-82687588D01*
X160179300Y-82756217D01*
X160110671Y-82790531D01*
X160762642Y-82584645D02*
X161243042Y-82584645D01*
X160934214Y-83305245D01*
%TO.C,R18*%
X159571997Y-92007285D02*
X159331797Y-91664142D01*
X159160225Y-92007285D02*
X159160225Y-91286685D01*
X159434740Y-91286685D01*
X159503368Y-91321000D01*
X159537682Y-91355314D01*
X159571997Y-91423942D01*
X159571997Y-91526885D01*
X159537682Y-91595514D01*
X159503368Y-91629828D01*
X159434740Y-91664142D01*
X159160225Y-91664142D01*
X160258282Y-92007285D02*
X159846511Y-92007285D01*
X160052397Y-92007285D02*
X160052397Y-91286685D01*
X159983768Y-91389628D01*
X159915140Y-91458257D01*
X159846511Y-91492571D01*
X160670054Y-91595514D02*
X160601425Y-91561200D01*
X160567111Y-91526885D01*
X160532797Y-91458257D01*
X160532797Y-91423942D01*
X160567111Y-91355314D01*
X160601425Y-91321000D01*
X160670054Y-91286685D01*
X160807311Y-91286685D01*
X160875940Y-91321000D01*
X160910254Y-91355314D01*
X160944568Y-91423942D01*
X160944568Y-91458257D01*
X160910254Y-91526885D01*
X160875940Y-91561200D01*
X160807311Y-91595514D01*
X160670054Y-91595514D01*
X160601425Y-91629828D01*
X160567111Y-91664142D01*
X160532797Y-91732771D01*
X160532797Y-91870028D01*
X160567111Y-91938657D01*
X160601425Y-91972971D01*
X160670054Y-92007285D01*
X160807311Y-92007285D01*
X160875940Y-91972971D01*
X160910254Y-91938657D01*
X160944568Y-91870028D01*
X160944568Y-91732771D01*
X160910254Y-91664142D01*
X160875940Y-91629828D01*
X160807311Y-91595514D01*
%TO.C,Q2*%
X145990321Y-88338719D02*
X145895083Y-88291100D01*
X145799845Y-88195861D01*
X145656988Y-88053004D01*
X145561750Y-88005385D01*
X145466512Y-88005385D01*
X145514131Y-88243480D02*
X145418893Y-88195861D01*
X145323655Y-88100623D01*
X145276036Y-87910147D01*
X145276036Y-87576814D01*
X145323655Y-87386338D01*
X145418893Y-87291100D01*
X145514131Y-87243480D01*
X145704607Y-87243480D01*
X145799845Y-87291100D01*
X145895083Y-87386338D01*
X145942702Y-87576814D01*
X145942702Y-87910147D01*
X145895083Y-88100623D01*
X145799845Y-88195861D01*
X145704607Y-88243480D01*
X145514131Y-88243480D01*
X146323655Y-87338719D02*
X146371274Y-87291100D01*
X146466512Y-87243480D01*
X146704607Y-87243480D01*
X146799845Y-87291100D01*
X146847464Y-87338719D01*
X146895083Y-87433957D01*
X146895083Y-87529195D01*
X146847464Y-87672052D01*
X146276036Y-88243480D01*
X146895083Y-88243480D01*
%TO.C,R13*%
X137989617Y-93931965D02*
X137749417Y-93588822D01*
X137577845Y-93931965D02*
X137577845Y-93211365D01*
X137852360Y-93211365D01*
X137920988Y-93245680D01*
X137955302Y-93279994D01*
X137989617Y-93348622D01*
X137989617Y-93451565D01*
X137955302Y-93520194D01*
X137920988Y-93554508D01*
X137852360Y-93588822D01*
X137577845Y-93588822D01*
X138675902Y-93931965D02*
X138264131Y-93931965D01*
X138470017Y-93931965D02*
X138470017Y-93211365D01*
X138401388Y-93314308D01*
X138332760Y-93382937D01*
X138264131Y-93417251D01*
X138916102Y-93211365D02*
X139362188Y-93211365D01*
X139121988Y-93485880D01*
X139224931Y-93485880D01*
X139293560Y-93520194D01*
X139327874Y-93554508D01*
X139362188Y-93623137D01*
X139362188Y-93794708D01*
X139327874Y-93863337D01*
X139293560Y-93897651D01*
X139224931Y-93931965D01*
X139019045Y-93931965D01*
X138950417Y-93897651D01*
X138916102Y-93863337D01*
%TO.C,R19*%
X140481357Y-93972605D02*
X140241157Y-93629462D01*
X140069585Y-93972605D02*
X140069585Y-93252005D01*
X140344100Y-93252005D01*
X140412728Y-93286320D01*
X140447042Y-93320634D01*
X140481357Y-93389262D01*
X140481357Y-93492205D01*
X140447042Y-93560834D01*
X140412728Y-93595148D01*
X140344100Y-93629462D01*
X140069585Y-93629462D01*
X141167642Y-93972605D02*
X140755871Y-93972605D01*
X140961757Y-93972605D02*
X140961757Y-93252005D01*
X140893128Y-93354948D01*
X140824500Y-93423577D01*
X140755871Y-93457891D01*
X141510785Y-93972605D02*
X141648042Y-93972605D01*
X141716671Y-93938291D01*
X141750985Y-93903977D01*
X141819614Y-93801034D01*
X141853928Y-93663777D01*
X141853928Y-93389262D01*
X141819614Y-93320634D01*
X141785300Y-93286320D01*
X141716671Y-93252005D01*
X141579414Y-93252005D01*
X141510785Y-93286320D01*
X141476471Y-93320634D01*
X141442157Y-93389262D01*
X141442157Y-93560834D01*
X141476471Y-93629462D01*
X141510785Y-93663777D01*
X141579414Y-93698091D01*
X141716671Y-93698091D01*
X141785300Y-93663777D01*
X141819614Y-93629462D01*
X141853928Y-93560834D01*
%TO.C,D1*%
X142818254Y-94210128D02*
X143538854Y-94210128D01*
X143538854Y-94381700D01*
X143504540Y-94484642D01*
X143435911Y-94553271D01*
X143367282Y-94587585D01*
X143230025Y-94621900D01*
X143127082Y-94621900D01*
X142989825Y-94587585D01*
X142921197Y-94553271D01*
X142852568Y-94484642D01*
X142818254Y-94381700D01*
X142818254Y-94210128D01*
X142818254Y-95308185D02*
X142818254Y-94896414D01*
X142818254Y-95102300D02*
X143538854Y-95102300D01*
X143435911Y-95033671D01*
X143367282Y-94965042D01*
X143332968Y-94896414D01*
%TO.C,R11*%
X142274597Y-83378905D02*
X142034397Y-83035762D01*
X141862825Y-83378905D02*
X141862825Y-82658305D01*
X142137340Y-82658305D01*
X142205968Y-82692620D01*
X142240282Y-82726934D01*
X142274597Y-82795562D01*
X142274597Y-82898505D01*
X142240282Y-82967134D01*
X142205968Y-83001448D01*
X142137340Y-83035762D01*
X141862825Y-83035762D01*
X142960882Y-83378905D02*
X142549111Y-83378905D01*
X142754997Y-83378905D02*
X142754997Y-82658305D01*
X142686368Y-82761248D01*
X142617740Y-82829877D01*
X142549111Y-82864191D01*
X143647168Y-83378905D02*
X143235397Y-83378905D01*
X143441282Y-83378905D02*
X143441282Y-82658305D01*
X143372654Y-82761248D01*
X143304025Y-82829877D01*
X143235397Y-82864191D01*
%TO.C,R10*%
X144178245Y-97755402D02*
X143835102Y-97995602D01*
X144178245Y-98167174D02*
X143457645Y-98167174D01*
X143457645Y-97892660D01*
X143491960Y-97824031D01*
X143526274Y-97789717D01*
X143594902Y-97755402D01*
X143697845Y-97755402D01*
X143766474Y-97789717D01*
X143800788Y-97824031D01*
X143835102Y-97892660D01*
X143835102Y-98167174D01*
X144178245Y-97069117D02*
X144178245Y-97480888D01*
X144178245Y-97275002D02*
X143457645Y-97275002D01*
X143560588Y-97343631D01*
X143629217Y-97412260D01*
X143663531Y-97480888D01*
X143457645Y-96623031D02*
X143457645Y-96554402D01*
X143491960Y-96485774D01*
X143526274Y-96451460D01*
X143594902Y-96417145D01*
X143732160Y-96382831D01*
X143903731Y-96382831D01*
X144040988Y-96417145D01*
X144109617Y-96451460D01*
X144143931Y-96485774D01*
X144178245Y-96554402D01*
X144178245Y-96623031D01*
X144143931Y-96691660D01*
X144109617Y-96725974D01*
X144040988Y-96760288D01*
X143903731Y-96794602D01*
X143732160Y-96794602D01*
X143594902Y-96760288D01*
X143526274Y-96725974D01*
X143491960Y-96691660D01*
X143457645Y-96623031D01*
%TO.C,R4*%
X151886200Y-92053005D02*
X151646000Y-91709862D01*
X151474428Y-92053005D02*
X151474428Y-91332405D01*
X151748942Y-91332405D01*
X151817571Y-91366720D01*
X151851885Y-91401034D01*
X151886200Y-91469662D01*
X151886200Y-91572605D01*
X151851885Y-91641234D01*
X151817571Y-91675548D01*
X151748942Y-91709862D01*
X151474428Y-91709862D01*
X152503857Y-91572605D02*
X152503857Y-92053005D01*
X152332285Y-91298091D02*
X152160714Y-91812805D01*
X152606800Y-91812805D01*
%TO.C,R3*%
X151858260Y-83317945D02*
X151618060Y-82974802D01*
X151446488Y-83317945D02*
X151446488Y-82597345D01*
X151721002Y-82597345D01*
X151789631Y-82631660D01*
X151823945Y-82665974D01*
X151858260Y-82734602D01*
X151858260Y-82837545D01*
X151823945Y-82906174D01*
X151789631Y-82940488D01*
X151721002Y-82974802D01*
X151446488Y-82974802D01*
X152098460Y-82597345D02*
X152544545Y-82597345D01*
X152304345Y-82871860D01*
X152407288Y-82871860D01*
X152475917Y-82906174D01*
X152510231Y-82940488D01*
X152544545Y-83009117D01*
X152544545Y-83180688D01*
X152510231Y-83249317D01*
X152475917Y-83283631D01*
X152407288Y-83317945D01*
X152201402Y-83317945D01*
X152132774Y-83283631D01*
X152098460Y-83249317D01*
%TO.C,J2*%
X169318226Y-97378700D02*
X169318226Y-98092986D01*
X169270607Y-98235843D01*
X169175369Y-98331081D01*
X169032512Y-98378700D01*
X168937274Y-98378700D01*
X169746798Y-97473939D02*
X169794417Y-97426320D01*
X169889655Y-97378700D01*
X170127750Y-97378700D01*
X170222988Y-97426320D01*
X170270607Y-97473939D01*
X170318226Y-97569177D01*
X170318226Y-97664415D01*
X170270607Y-97807272D01*
X169699179Y-98378700D01*
X170318226Y-98378700D01*
%TO.C,C1*%
X159231880Y-110206337D02*
X159197565Y-110240651D01*
X159094622Y-110274965D01*
X159025994Y-110274965D01*
X158923051Y-110240651D01*
X158854422Y-110172022D01*
X158820108Y-110103394D01*
X158785794Y-109966137D01*
X158785794Y-109863194D01*
X158820108Y-109725937D01*
X158854422Y-109657308D01*
X158923051Y-109588680D01*
X159025994Y-109554365D01*
X159094622Y-109554365D01*
X159197565Y-109588680D01*
X159231880Y-109622994D01*
X159918165Y-110274965D02*
X159506394Y-110274965D01*
X159712280Y-110274965D02*
X159712280Y-109554365D01*
X159643651Y-109657308D01*
X159575022Y-109725937D01*
X159506394Y-109760251D01*
%TO.C,C2*%
X156650740Y-110193797D02*
X156616425Y-110228111D01*
X156513482Y-110262425D01*
X156444854Y-110262425D01*
X156341911Y-110228111D01*
X156273282Y-110159482D01*
X156238968Y-110090854D01*
X156204654Y-109953597D01*
X156204654Y-109850654D01*
X156238968Y-109713397D01*
X156273282Y-109644768D01*
X156341911Y-109576140D01*
X156444854Y-109541825D01*
X156513482Y-109541825D01*
X156616425Y-109576140D01*
X156650740Y-109610454D01*
X156925254Y-109610454D02*
X156959568Y-109576140D01*
X157028197Y-109541825D01*
X157199768Y-109541825D01*
X157268397Y-109576140D01*
X157302711Y-109610454D01*
X157337025Y-109679082D01*
X157337025Y-109747711D01*
X157302711Y-109850654D01*
X156890940Y-110262425D01*
X157337025Y-110262425D01*
%TO.C,C3*%
X153514840Y-112178597D02*
X153480525Y-112212911D01*
X153377582Y-112247225D01*
X153308954Y-112247225D01*
X153206011Y-112212911D01*
X153137382Y-112144282D01*
X153103068Y-112075654D01*
X153068754Y-111938397D01*
X153068754Y-111835454D01*
X153103068Y-111698197D01*
X153137382Y-111629568D01*
X153206011Y-111560940D01*
X153308954Y-111526625D01*
X153377582Y-111526625D01*
X153480525Y-111560940D01*
X153514840Y-111595254D01*
X153755040Y-111526625D02*
X154201125Y-111526625D01*
X153960925Y-111801140D01*
X154063868Y-111801140D01*
X154132497Y-111835454D01*
X154166811Y-111869768D01*
X154201125Y-111938397D01*
X154201125Y-112109968D01*
X154166811Y-112178597D01*
X154132497Y-112212911D01*
X154063868Y-112247225D01*
X153857982Y-112247225D01*
X153789354Y-112212911D01*
X153755040Y-112178597D01*
%TO.C,C4*%
X143933460Y-102266297D02*
X143899145Y-102300611D01*
X143796202Y-102334925D01*
X143727574Y-102334925D01*
X143624631Y-102300611D01*
X143556002Y-102231982D01*
X143521688Y-102163354D01*
X143487374Y-102026097D01*
X143487374Y-101923154D01*
X143521688Y-101785897D01*
X143556002Y-101717268D01*
X143624631Y-101648640D01*
X143727574Y-101614325D01*
X143796202Y-101614325D01*
X143899145Y-101648640D01*
X143933460Y-101682954D01*
X144551117Y-101854525D02*
X144551117Y-102334925D01*
X144379545Y-101580011D02*
X144207974Y-102094725D01*
X144654060Y-102094725D01*
%TO.C,C5*%
X146112580Y-109106177D02*
X146078265Y-109140491D01*
X145975322Y-109174805D01*
X145906694Y-109174805D01*
X145803751Y-109140491D01*
X145735122Y-109071862D01*
X145700808Y-109003234D01*
X145666494Y-108865977D01*
X145666494Y-108763034D01*
X145700808Y-108625777D01*
X145735122Y-108557148D01*
X145803751Y-108488520D01*
X145906694Y-108454205D01*
X145975322Y-108454205D01*
X146078265Y-108488520D01*
X146112580Y-108522834D01*
X146764551Y-108454205D02*
X146421408Y-108454205D01*
X146387094Y-108797348D01*
X146421408Y-108763034D01*
X146490037Y-108728720D01*
X146661608Y-108728720D01*
X146730237Y-108763034D01*
X146764551Y-108797348D01*
X146798865Y-108865977D01*
X146798865Y-109037548D01*
X146764551Y-109106177D01*
X146730237Y-109140491D01*
X146661608Y-109174805D01*
X146490037Y-109174805D01*
X146421408Y-109140491D01*
X146387094Y-109106177D01*
%TO.C,C6*%
X141604780Y-106604177D02*
X141570465Y-106638491D01*
X141467522Y-106672805D01*
X141398894Y-106672805D01*
X141295951Y-106638491D01*
X141227322Y-106569862D01*
X141193008Y-106501234D01*
X141158694Y-106363977D01*
X141158694Y-106261034D01*
X141193008Y-106123777D01*
X141227322Y-106055148D01*
X141295951Y-105986520D01*
X141398894Y-105952205D01*
X141467522Y-105952205D01*
X141570465Y-105986520D01*
X141604780Y-106020834D01*
X142222437Y-105952205D02*
X142085180Y-105952205D01*
X142016551Y-105986520D01*
X141982237Y-106020834D01*
X141913608Y-106123777D01*
X141879294Y-106261034D01*
X141879294Y-106535548D01*
X141913608Y-106604177D01*
X141947922Y-106638491D01*
X142016551Y-106672805D01*
X142153808Y-106672805D01*
X142222437Y-106638491D01*
X142256751Y-106604177D01*
X142291065Y-106535548D01*
X142291065Y-106363977D01*
X142256751Y-106295348D01*
X142222437Y-106261034D01*
X142153808Y-106226720D01*
X142016551Y-106226720D01*
X141947922Y-106261034D01*
X141913608Y-106295348D01*
X141879294Y-106363977D01*
%TO.C,C7*%
X136240300Y-109972257D02*
X136205985Y-110006571D01*
X136103042Y-110040885D01*
X136034414Y-110040885D01*
X135931471Y-110006571D01*
X135862842Y-109937942D01*
X135828528Y-109869314D01*
X135794214Y-109732057D01*
X135794214Y-109629114D01*
X135828528Y-109491857D01*
X135862842Y-109423228D01*
X135931471Y-109354600D01*
X136034414Y-109320285D01*
X136103042Y-109320285D01*
X136205985Y-109354600D01*
X136240300Y-109388914D01*
X136480500Y-109320285D02*
X136960900Y-109320285D01*
X136652071Y-110040885D01*
%TO.C,C8*%
X138538500Y-109984857D02*
X138504185Y-110019171D01*
X138401242Y-110053485D01*
X138332614Y-110053485D01*
X138229671Y-110019171D01*
X138161042Y-109950542D01*
X138126728Y-109881914D01*
X138092414Y-109744657D01*
X138092414Y-109641714D01*
X138126728Y-109504457D01*
X138161042Y-109435828D01*
X138229671Y-109367200D01*
X138332614Y-109332885D01*
X138401242Y-109332885D01*
X138504185Y-109367200D01*
X138538500Y-109401514D01*
X138950271Y-109641714D02*
X138881642Y-109607400D01*
X138847328Y-109573085D01*
X138813014Y-109504457D01*
X138813014Y-109470142D01*
X138847328Y-109401514D01*
X138881642Y-109367200D01*
X138950271Y-109332885D01*
X139087528Y-109332885D01*
X139156157Y-109367200D01*
X139190471Y-109401514D01*
X139224785Y-109470142D01*
X139224785Y-109504457D01*
X139190471Y-109573085D01*
X139156157Y-109607400D01*
X139087528Y-109641714D01*
X138950271Y-109641714D01*
X138881642Y-109676028D01*
X138847328Y-109710342D01*
X138813014Y-109778971D01*
X138813014Y-109916228D01*
X138847328Y-109984857D01*
X138881642Y-110019171D01*
X138950271Y-110053485D01*
X139087528Y-110053485D01*
X139156157Y-110019171D01*
X139190471Y-109984857D01*
X139224785Y-109916228D01*
X139224785Y-109778971D01*
X139190471Y-109710342D01*
X139156157Y-109676028D01*
X139087528Y-109641714D01*
%TO.C,C52*%
X123590357Y-109121257D02*
X123556042Y-109155571D01*
X123453100Y-109189885D01*
X123384471Y-109189885D01*
X123281528Y-109155571D01*
X123212900Y-109086942D01*
X123178585Y-109018314D01*
X123144271Y-108881057D01*
X123144271Y-108778114D01*
X123178585Y-108640857D01*
X123212900Y-108572228D01*
X123281528Y-108503600D01*
X123384471Y-108469285D01*
X123453100Y-108469285D01*
X123556042Y-108503600D01*
X123590357Y-108537914D01*
X124242328Y-108469285D02*
X123899185Y-108469285D01*
X123864871Y-108812428D01*
X123899185Y-108778114D01*
X123967814Y-108743800D01*
X124139385Y-108743800D01*
X124208014Y-108778114D01*
X124242328Y-108812428D01*
X124276642Y-108881057D01*
X124276642Y-109052628D01*
X124242328Y-109121257D01*
X124208014Y-109155571D01*
X124139385Y-109189885D01*
X123967814Y-109189885D01*
X123899185Y-109155571D01*
X123864871Y-109121257D01*
X124551157Y-108537914D02*
X124585471Y-108503600D01*
X124654100Y-108469285D01*
X124825671Y-108469285D01*
X124894300Y-108503600D01*
X124928614Y-108537914D01*
X124962928Y-108606542D01*
X124962928Y-108675171D01*
X124928614Y-108778114D01*
X124516842Y-109189885D01*
X124962928Y-109189885D01*
%TO.C,C32*%
X132607257Y-112198357D02*
X132572942Y-112232671D01*
X132470000Y-112266985D01*
X132401371Y-112266985D01*
X132298428Y-112232671D01*
X132229800Y-112164042D01*
X132195485Y-112095414D01*
X132161171Y-111958157D01*
X132161171Y-111855214D01*
X132195485Y-111717957D01*
X132229800Y-111649328D01*
X132298428Y-111580700D01*
X132401371Y-111546385D01*
X132470000Y-111546385D01*
X132572942Y-111580700D01*
X132607257Y-111615014D01*
X132847457Y-111546385D02*
X133293542Y-111546385D01*
X133053342Y-111820900D01*
X133156285Y-111820900D01*
X133224914Y-111855214D01*
X133259228Y-111889528D01*
X133293542Y-111958157D01*
X133293542Y-112129728D01*
X133259228Y-112198357D01*
X133224914Y-112232671D01*
X133156285Y-112266985D01*
X132950400Y-112266985D01*
X132881771Y-112232671D01*
X132847457Y-112198357D01*
X133568057Y-111615014D02*
X133602371Y-111580700D01*
X133671000Y-111546385D01*
X133842571Y-111546385D01*
X133911200Y-111580700D01*
X133945514Y-111615014D01*
X133979828Y-111683642D01*
X133979828Y-111752271D01*
X133945514Y-111855214D01*
X133533742Y-112266985D01*
X133979828Y-112266985D01*
%TO.C,C62*%
X118383057Y-106543957D02*
X118348742Y-106578271D01*
X118245800Y-106612585D01*
X118177171Y-106612585D01*
X118074228Y-106578271D01*
X118005600Y-106509642D01*
X117971285Y-106441014D01*
X117936971Y-106303757D01*
X117936971Y-106200814D01*
X117971285Y-106063557D01*
X118005600Y-105994928D01*
X118074228Y-105926300D01*
X118177171Y-105891985D01*
X118245800Y-105891985D01*
X118348742Y-105926300D01*
X118383057Y-105960614D01*
X119000714Y-105891985D02*
X118863457Y-105891985D01*
X118794828Y-105926300D01*
X118760514Y-105960614D01*
X118691885Y-106063557D01*
X118657571Y-106200814D01*
X118657571Y-106475328D01*
X118691885Y-106543957D01*
X118726200Y-106578271D01*
X118794828Y-106612585D01*
X118932085Y-106612585D01*
X119000714Y-106578271D01*
X119035028Y-106543957D01*
X119069342Y-106475328D01*
X119069342Y-106303757D01*
X119035028Y-106235128D01*
X119000714Y-106200814D01*
X118932085Y-106166500D01*
X118794828Y-106166500D01*
X118726200Y-106200814D01*
X118691885Y-106235128D01*
X118657571Y-106303757D01*
X119343857Y-105960614D02*
X119378171Y-105926300D01*
X119446800Y-105891985D01*
X119618371Y-105891985D01*
X119687000Y-105926300D01*
X119721314Y-105960614D01*
X119755628Y-106029242D01*
X119755628Y-106097871D01*
X119721314Y-106200814D01*
X119309542Y-106612585D01*
X119755628Y-106612585D01*
%TO.C,C42*%
X125624497Y-98720657D02*
X125590182Y-98754971D01*
X125487240Y-98789285D01*
X125418611Y-98789285D01*
X125315668Y-98754971D01*
X125247040Y-98686342D01*
X125212725Y-98617714D01*
X125178411Y-98480457D01*
X125178411Y-98377514D01*
X125212725Y-98240257D01*
X125247040Y-98171628D01*
X125315668Y-98103000D01*
X125418611Y-98068685D01*
X125487240Y-98068685D01*
X125590182Y-98103000D01*
X125624497Y-98137314D01*
X126242154Y-98308885D02*
X126242154Y-98789285D01*
X126070582Y-98034371D02*
X125899011Y-98549085D01*
X126345097Y-98549085D01*
X126585297Y-98137314D02*
X126619611Y-98103000D01*
X126688240Y-98068685D01*
X126859811Y-98068685D01*
X126928440Y-98103000D01*
X126962754Y-98137314D01*
X126997068Y-98205942D01*
X126997068Y-98274571D01*
X126962754Y-98377514D01*
X126550982Y-98789285D01*
X126997068Y-98789285D01*
%TO.C,C11*%
X133407557Y-117999057D02*
X133373242Y-118033371D01*
X133270300Y-118067685D01*
X133201671Y-118067685D01*
X133098728Y-118033371D01*
X133030100Y-117964742D01*
X132995785Y-117896114D01*
X132961471Y-117758857D01*
X132961471Y-117655914D01*
X132995785Y-117518657D01*
X133030100Y-117450028D01*
X133098728Y-117381400D01*
X133201671Y-117347085D01*
X133270300Y-117347085D01*
X133373242Y-117381400D01*
X133407557Y-117415714D01*
X134093842Y-118067685D02*
X133682071Y-118067685D01*
X133887957Y-118067685D02*
X133887957Y-117347085D01*
X133819328Y-117450028D01*
X133750700Y-117518657D01*
X133682071Y-117552971D01*
X134780128Y-118067685D02*
X134368357Y-118067685D01*
X134574242Y-118067685D02*
X134574242Y-117347085D01*
X134505614Y-117450028D01*
X134436985Y-117518657D01*
X134368357Y-117552971D01*
%TO.C,C12*%
X133521457Y-115928957D02*
X133487142Y-115963271D01*
X133384200Y-115997585D01*
X133315571Y-115997585D01*
X133212628Y-115963271D01*
X133144000Y-115894642D01*
X133109685Y-115826014D01*
X133075371Y-115688757D01*
X133075371Y-115585814D01*
X133109685Y-115448557D01*
X133144000Y-115379928D01*
X133212628Y-115311300D01*
X133315571Y-115276985D01*
X133384200Y-115276985D01*
X133487142Y-115311300D01*
X133521457Y-115345614D01*
X134207742Y-115997585D02*
X133795971Y-115997585D01*
X134001857Y-115997585D02*
X134001857Y-115276985D01*
X133933228Y-115379928D01*
X133864600Y-115448557D01*
X133795971Y-115482871D01*
X134482257Y-115345614D02*
X134516571Y-115311300D01*
X134585200Y-115276985D01*
X134756771Y-115276985D01*
X134825400Y-115311300D01*
X134859714Y-115345614D01*
X134894028Y-115414242D01*
X134894028Y-115482871D01*
X134859714Y-115585814D01*
X134447942Y-115997585D01*
X134894028Y-115997585D01*
%TO.C,C13*%
X133572257Y-113884157D02*
X133537942Y-113918471D01*
X133435000Y-113952785D01*
X133366371Y-113952785D01*
X133263428Y-113918471D01*
X133194800Y-113849842D01*
X133160485Y-113781214D01*
X133126171Y-113643957D01*
X133126171Y-113541014D01*
X133160485Y-113403757D01*
X133194800Y-113335128D01*
X133263428Y-113266500D01*
X133366371Y-113232185D01*
X133435000Y-113232185D01*
X133537942Y-113266500D01*
X133572257Y-113300814D01*
X134258542Y-113952785D02*
X133846771Y-113952785D01*
X134052657Y-113952785D02*
X134052657Y-113232185D01*
X133984028Y-113335128D01*
X133915400Y-113403757D01*
X133846771Y-113438071D01*
X134498742Y-113232185D02*
X134944828Y-113232185D01*
X134704628Y-113506700D01*
X134807571Y-113506700D01*
X134876200Y-113541014D01*
X134910514Y-113575328D01*
X134944828Y-113643957D01*
X134944828Y-113815528D01*
X134910514Y-113884157D01*
X134876200Y-113918471D01*
X134807571Y-113952785D01*
X134601685Y-113952785D01*
X134533057Y-113918471D01*
X134498742Y-113884157D01*
%TO.C,C21*%
X153945897Y-118095577D02*
X153911582Y-118129891D01*
X153808640Y-118164205D01*
X153740011Y-118164205D01*
X153637068Y-118129891D01*
X153568440Y-118061262D01*
X153534125Y-117992634D01*
X153499811Y-117855377D01*
X153499811Y-117752434D01*
X153534125Y-117615177D01*
X153568440Y-117546548D01*
X153637068Y-117477920D01*
X153740011Y-117443605D01*
X153808640Y-117443605D01*
X153911582Y-117477920D01*
X153945897Y-117512234D01*
X154220411Y-117512234D02*
X154254725Y-117477920D01*
X154323354Y-117443605D01*
X154494925Y-117443605D01*
X154563554Y-117477920D01*
X154597868Y-117512234D01*
X154632182Y-117580862D01*
X154632182Y-117649491D01*
X154597868Y-117752434D01*
X154186097Y-118164205D01*
X154632182Y-118164205D01*
X155318468Y-118164205D02*
X154906697Y-118164205D01*
X155112582Y-118164205D02*
X155112582Y-117443605D01*
X155043954Y-117546548D01*
X154975325Y-117615177D01*
X154906697Y-117649491D01*
%TO.C,C22*%
X153854457Y-116081357D02*
X153820142Y-116115671D01*
X153717200Y-116149985D01*
X153648571Y-116149985D01*
X153545628Y-116115671D01*
X153477000Y-116047042D01*
X153442685Y-115978414D01*
X153408371Y-115841157D01*
X153408371Y-115738214D01*
X153442685Y-115600957D01*
X153477000Y-115532328D01*
X153545628Y-115463700D01*
X153648571Y-115429385D01*
X153717200Y-115429385D01*
X153820142Y-115463700D01*
X153854457Y-115498014D01*
X154128971Y-115498014D02*
X154163285Y-115463700D01*
X154231914Y-115429385D01*
X154403485Y-115429385D01*
X154472114Y-115463700D01*
X154506428Y-115498014D01*
X154540742Y-115566642D01*
X154540742Y-115635271D01*
X154506428Y-115738214D01*
X154094657Y-116149985D01*
X154540742Y-116149985D01*
X154815257Y-115498014D02*
X154849571Y-115463700D01*
X154918200Y-115429385D01*
X155089771Y-115429385D01*
X155158400Y-115463700D01*
X155192714Y-115498014D01*
X155227028Y-115566642D01*
X155227028Y-115635271D01*
X155192714Y-115738214D01*
X154780942Y-116149985D01*
X155227028Y-116149985D01*
%TO.C,C23*%
X153872237Y-114069677D02*
X153837922Y-114103991D01*
X153734980Y-114138305D01*
X153666351Y-114138305D01*
X153563408Y-114103991D01*
X153494780Y-114035362D01*
X153460465Y-113966734D01*
X153426151Y-113829477D01*
X153426151Y-113726534D01*
X153460465Y-113589277D01*
X153494780Y-113520648D01*
X153563408Y-113452020D01*
X153666351Y-113417705D01*
X153734980Y-113417705D01*
X153837922Y-113452020D01*
X153872237Y-113486334D01*
X154146751Y-113486334D02*
X154181065Y-113452020D01*
X154249694Y-113417705D01*
X154421265Y-113417705D01*
X154489894Y-113452020D01*
X154524208Y-113486334D01*
X154558522Y-113554962D01*
X154558522Y-113623591D01*
X154524208Y-113726534D01*
X154112437Y-114138305D01*
X154558522Y-114138305D01*
X154798722Y-113417705D02*
X155244808Y-113417705D01*
X155004608Y-113692220D01*
X155107551Y-113692220D01*
X155176180Y-113726534D01*
X155210494Y-113760848D01*
X155244808Y-113829477D01*
X155244808Y-114001048D01*
X155210494Y-114069677D01*
X155176180Y-114103991D01*
X155107551Y-114138305D01*
X154901665Y-114138305D01*
X154833037Y-114103991D01*
X154798722Y-114069677D01*
%TO.C,Css1*%
X156410997Y-102433597D02*
X156376682Y-102467911D01*
X156273740Y-102502225D01*
X156205111Y-102502225D01*
X156102168Y-102467911D01*
X156033540Y-102399282D01*
X155999225Y-102330654D01*
X155964911Y-102193397D01*
X155964911Y-102090454D01*
X155999225Y-101953197D01*
X156033540Y-101884568D01*
X156102168Y-101815940D01*
X156205111Y-101781625D01*
X156273740Y-101781625D01*
X156376682Y-101815940D01*
X156410997Y-101850254D01*
X156685511Y-102467911D02*
X156754140Y-102502225D01*
X156891397Y-102502225D01*
X156960025Y-102467911D01*
X156994340Y-102399282D01*
X156994340Y-102364968D01*
X156960025Y-102296340D01*
X156891397Y-102262025D01*
X156788454Y-102262025D01*
X156719825Y-102227711D01*
X156685511Y-102159082D01*
X156685511Y-102124768D01*
X156719825Y-102056140D01*
X156788454Y-102021825D01*
X156891397Y-102021825D01*
X156960025Y-102056140D01*
X157268854Y-102467911D02*
X157337482Y-102502225D01*
X157474740Y-102502225D01*
X157543368Y-102467911D01*
X157577682Y-102399282D01*
X157577682Y-102364968D01*
X157543368Y-102296340D01*
X157474740Y-102262025D01*
X157371797Y-102262025D01*
X157303168Y-102227711D01*
X157268854Y-102159082D01*
X157268854Y-102124768D01*
X157303168Y-102056140D01*
X157371797Y-102021825D01*
X157474740Y-102021825D01*
X157543368Y-102056140D01*
X158263968Y-102502225D02*
X157852197Y-102502225D01*
X158058082Y-102502225D02*
X158058082Y-101781625D01*
X157989454Y-101884568D01*
X157920825Y-101953197D01*
X157852197Y-101987511D01*
%TO.C,Css2*%
X136545657Y-101832457D02*
X136511342Y-101866771D01*
X136408400Y-101901085D01*
X136339771Y-101901085D01*
X136236828Y-101866771D01*
X136168200Y-101798142D01*
X136133885Y-101729514D01*
X136099571Y-101592257D01*
X136099571Y-101489314D01*
X136133885Y-101352057D01*
X136168200Y-101283428D01*
X136236828Y-101214800D01*
X136339771Y-101180485D01*
X136408400Y-101180485D01*
X136511342Y-101214800D01*
X136545657Y-101249114D01*
X136820171Y-101866771D02*
X136888800Y-101901085D01*
X137026057Y-101901085D01*
X137094685Y-101866771D01*
X137129000Y-101798142D01*
X137129000Y-101763828D01*
X137094685Y-101695200D01*
X137026057Y-101660885D01*
X136923114Y-101660885D01*
X136854485Y-101626571D01*
X136820171Y-101557942D01*
X136820171Y-101523628D01*
X136854485Y-101455000D01*
X136923114Y-101420685D01*
X137026057Y-101420685D01*
X137094685Y-101455000D01*
X137403514Y-101866771D02*
X137472142Y-101901085D01*
X137609400Y-101901085D01*
X137678028Y-101866771D01*
X137712342Y-101798142D01*
X137712342Y-101763828D01*
X137678028Y-101695200D01*
X137609400Y-101660885D01*
X137506457Y-101660885D01*
X137437828Y-101626571D01*
X137403514Y-101557942D01*
X137403514Y-101523628D01*
X137437828Y-101455000D01*
X137506457Y-101420685D01*
X137609400Y-101420685D01*
X137678028Y-101455000D01*
X137986857Y-101249114D02*
X138021171Y-101214800D01*
X138089800Y-101180485D01*
X138261371Y-101180485D01*
X138330000Y-101214800D01*
X138364314Y-101249114D01*
X138398628Y-101317742D01*
X138398628Y-101386371D01*
X138364314Y-101489314D01*
X137952542Y-101901085D01*
X138398628Y-101901085D01*
%TO.C,J1*%
X119212666Y-88389880D02*
X119212666Y-89104166D01*
X119165047Y-89247023D01*
X119069809Y-89342261D01*
X118926952Y-89389880D01*
X118831714Y-89389880D01*
X120212666Y-89389880D02*
X119641238Y-89389880D01*
X119926952Y-89389880D02*
X119926952Y-88389880D01*
X119831714Y-88532738D01*
X119736476Y-88627976D01*
X119641238Y-88675595D01*
%TO.C,R1*%
X148787200Y-100051325D02*
X148547000Y-99708182D01*
X148375428Y-100051325D02*
X148375428Y-99330725D01*
X148649942Y-99330725D01*
X148718571Y-99365040D01*
X148752885Y-99399354D01*
X148787200Y-99467982D01*
X148787200Y-99570925D01*
X148752885Y-99639554D01*
X148718571Y-99673868D01*
X148649942Y-99708182D01*
X148375428Y-99708182D01*
X149473485Y-100051325D02*
X149061714Y-100051325D01*
X149267600Y-100051325D02*
X149267600Y-99330725D01*
X149198971Y-99433668D01*
X149130342Y-99502297D01*
X149061714Y-99536611D01*
%TO.C,R2*%
X149242060Y-100988725D02*
X149001860Y-100645582D01*
X148830288Y-100988725D02*
X148830288Y-100268125D01*
X149104802Y-100268125D01*
X149173431Y-100302440D01*
X149207745Y-100336754D01*
X149242060Y-100405382D01*
X149242060Y-100508325D01*
X149207745Y-100576954D01*
X149173431Y-100611268D01*
X149104802Y-100645582D01*
X148830288Y-100645582D01*
X149516574Y-100336754D02*
X149550888Y-100302440D01*
X149619517Y-100268125D01*
X149791088Y-100268125D01*
X149859717Y-100302440D01*
X149894031Y-100336754D01*
X149928345Y-100405382D01*
X149928345Y-100474011D01*
X149894031Y-100576954D01*
X149482260Y-100988725D01*
X149928345Y-100988725D01*
%TO.C,R52*%
X123684337Y-104039265D02*
X123444137Y-103696122D01*
X123272565Y-104039265D02*
X123272565Y-103318665D01*
X123547080Y-103318665D01*
X123615708Y-103352980D01*
X123650022Y-103387294D01*
X123684337Y-103455922D01*
X123684337Y-103558865D01*
X123650022Y-103627494D01*
X123615708Y-103661808D01*
X123547080Y-103696122D01*
X123272565Y-103696122D01*
X124336308Y-103318665D02*
X123993165Y-103318665D01*
X123958851Y-103661808D01*
X123993165Y-103627494D01*
X124061794Y-103593180D01*
X124233365Y-103593180D01*
X124301994Y-103627494D01*
X124336308Y-103661808D01*
X124370622Y-103730437D01*
X124370622Y-103902008D01*
X124336308Y-103970637D01*
X124301994Y-104004951D01*
X124233365Y-104039265D01*
X124061794Y-104039265D01*
X123993165Y-104004951D01*
X123958851Y-103970637D01*
X124645137Y-103387294D02*
X124679451Y-103352980D01*
X124748080Y-103318665D01*
X124919651Y-103318665D01*
X124988280Y-103352980D01*
X125022594Y-103387294D01*
X125056908Y-103455922D01*
X125056908Y-103524551D01*
X125022594Y-103627494D01*
X124610822Y-104039265D01*
X125056908Y-104039265D01*
%TO.C,R12*%
X122833437Y-102388265D02*
X122593237Y-102045122D01*
X122421665Y-102388265D02*
X122421665Y-101667665D01*
X122696180Y-101667665D01*
X122764808Y-101701980D01*
X122799122Y-101736294D01*
X122833437Y-101804922D01*
X122833437Y-101907865D01*
X122799122Y-101976494D01*
X122764808Y-102010808D01*
X122696180Y-102045122D01*
X122421665Y-102045122D01*
X123519722Y-102388265D02*
X123107951Y-102388265D01*
X123313837Y-102388265D02*
X123313837Y-101667665D01*
X123245208Y-101770608D01*
X123176580Y-101839237D01*
X123107951Y-101873551D01*
X123794237Y-101736294D02*
X123828551Y-101701980D01*
X123897180Y-101667665D01*
X124068751Y-101667665D01*
X124137380Y-101701980D01*
X124171694Y-101736294D01*
X124206008Y-101804922D01*
X124206008Y-101873551D01*
X124171694Y-101976494D01*
X123759922Y-102388265D01*
X124206008Y-102388265D01*
%TO.C,R5*%
X146138280Y-104184005D02*
X145898080Y-103840862D01*
X145726508Y-104184005D02*
X145726508Y-103463405D01*
X146001022Y-103463405D01*
X146069651Y-103497720D01*
X146103965Y-103532034D01*
X146138280Y-103600662D01*
X146138280Y-103703605D01*
X146103965Y-103772234D01*
X146069651Y-103806548D01*
X146001022Y-103840862D01*
X145726508Y-103840862D01*
X146790251Y-103463405D02*
X146447108Y-103463405D01*
X146412794Y-103806548D01*
X146447108Y-103772234D01*
X146515737Y-103737920D01*
X146687308Y-103737920D01*
X146755937Y-103772234D01*
X146790251Y-103806548D01*
X146824565Y-103875177D01*
X146824565Y-104046748D01*
X146790251Y-104115377D01*
X146755937Y-104149691D01*
X146687308Y-104184005D01*
X146515737Y-104184005D01*
X146447108Y-104149691D01*
X146412794Y-104115377D01*
%TO.C,R6*%
X138799165Y-88423200D02*
X138456022Y-88663400D01*
X138799165Y-88834971D02*
X138078565Y-88834971D01*
X138078565Y-88560457D01*
X138112880Y-88491828D01*
X138147194Y-88457514D01*
X138215822Y-88423200D01*
X138318765Y-88423200D01*
X138387394Y-88457514D01*
X138421708Y-88491828D01*
X138456022Y-88560457D01*
X138456022Y-88834971D01*
X138078565Y-87805542D02*
X138078565Y-87942800D01*
X138112880Y-88011428D01*
X138147194Y-88045742D01*
X138250137Y-88114371D01*
X138387394Y-88148685D01*
X138661908Y-88148685D01*
X138730537Y-88114371D01*
X138764851Y-88080057D01*
X138799165Y-88011428D01*
X138799165Y-87874171D01*
X138764851Y-87805542D01*
X138730537Y-87771228D01*
X138661908Y-87736914D01*
X138490337Y-87736914D01*
X138421708Y-87771228D01*
X138387394Y-87805542D01*
X138353080Y-87874171D01*
X138353080Y-88011428D01*
X138387394Y-88080057D01*
X138421708Y-88114371D01*
X138490337Y-88148685D01*
%TO.C,R22*%
X128332537Y-100884585D02*
X128092337Y-100541442D01*
X127920765Y-100884585D02*
X127920765Y-100163985D01*
X128195280Y-100163985D01*
X128263908Y-100198300D01*
X128298222Y-100232614D01*
X128332537Y-100301242D01*
X128332537Y-100404185D01*
X128298222Y-100472814D01*
X128263908Y-100507128D01*
X128195280Y-100541442D01*
X127920765Y-100541442D01*
X128607051Y-100232614D02*
X128641365Y-100198300D01*
X128709994Y-100163985D01*
X128881565Y-100163985D01*
X128950194Y-100198300D01*
X128984508Y-100232614D01*
X129018822Y-100301242D01*
X129018822Y-100369871D01*
X128984508Y-100472814D01*
X128572737Y-100884585D01*
X129018822Y-100884585D01*
X129293337Y-100232614D02*
X129327651Y-100198300D01*
X129396280Y-100163985D01*
X129567851Y-100163985D01*
X129636480Y-100198300D01*
X129670794Y-100232614D01*
X129705108Y-100301242D01*
X129705108Y-100369871D01*
X129670794Y-100472814D01*
X129259022Y-100884585D01*
X129705108Y-100884585D01*
%TO.C,U1*%
X155922591Y-103473605D02*
X155922591Y-104056948D01*
X155956905Y-104125577D01*
X155991220Y-104159891D01*
X156059848Y-104194205D01*
X156197105Y-104194205D01*
X156265734Y-104159891D01*
X156300048Y-104125577D01*
X156334362Y-104056948D01*
X156334362Y-103473605D01*
X157054962Y-104194205D02*
X156643191Y-104194205D01*
X156849077Y-104194205D02*
X156849077Y-103473605D01*
X156780448Y-103576548D01*
X156711820Y-103645177D01*
X156643191Y-103679491D01*
%TO.C,U2*%
X135325731Y-103298345D02*
X135325731Y-103881688D01*
X135360045Y-103950317D01*
X135394360Y-103984631D01*
X135462988Y-104018945D01*
X135600245Y-104018945D01*
X135668874Y-103984631D01*
X135703188Y-103950317D01*
X135737502Y-103881688D01*
X135737502Y-103298345D01*
X136046331Y-103366974D02*
X136080645Y-103332660D01*
X136149274Y-103298345D01*
X136320845Y-103298345D01*
X136389474Y-103332660D01*
X136423788Y-103366974D01*
X136458102Y-103435602D01*
X136458102Y-103504231D01*
X136423788Y-103607174D01*
X136012017Y-104018945D01*
X136458102Y-104018945D01*
%TO.C,C9*%
X153979160Y-91966597D02*
X153944845Y-92000911D01*
X153841902Y-92035225D01*
X153773274Y-92035225D01*
X153670331Y-92000911D01*
X153601702Y-91932282D01*
X153567388Y-91863654D01*
X153533074Y-91726397D01*
X153533074Y-91623454D01*
X153567388Y-91486197D01*
X153601702Y-91417568D01*
X153670331Y-91348940D01*
X153773274Y-91314625D01*
X153841902Y-91314625D01*
X153944845Y-91348940D01*
X153979160Y-91383254D01*
X154322302Y-92035225D02*
X154459560Y-92035225D01*
X154528188Y-92000911D01*
X154562502Y-91966597D01*
X154631131Y-91863654D01*
X154665445Y-91726397D01*
X154665445Y-91451882D01*
X154631131Y-91383254D01*
X154596817Y-91348940D01*
X154528188Y-91314625D01*
X154390931Y-91314625D01*
X154322302Y-91348940D01*
X154287988Y-91383254D01*
X154253674Y-91451882D01*
X154253674Y-91623454D01*
X154287988Y-91692082D01*
X154322302Y-91726397D01*
X154390931Y-91760711D01*
X154528188Y-91760711D01*
X154596817Y-91726397D01*
X154631131Y-91692082D01*
X154665445Y-91623454D01*
%TD*%
M02*
